<svg width="119" height="171" viewBox="0 0 119 171" fill="none" xmlns="http://www.w3.org/2000/svg">
<path d="M59.63 134.397C48.3062 134.397 38.6157 129.78 30.5584 120.546C22.61 111.2 18.6358 99.9628 18.6358 86.8347C18.6358 73.7063 22.61 62.5249 30.5584 53.2905C38.6157 43.9448 48.3062 39.2721 59.63 39.2721C70.8449 39.2721 80.3721 43.9448 88.2116 53.2905C96.1603 62.5249 100.134 73.7063 100.134 86.8347C100.134 99.9628 96.1603 111.2 88.2116 120.546C80.3721 129.78 70.8449 134.397 59.63 134.397ZM87.2317 54.2918C79.6099 45.2799 70.4094 40.7741 59.63 40.7741C48.8506 40.7741 39.5956 45.2799 31.8649 54.2918C24.1343 63.3037 20.269 74.1513 20.269 86.8347C20.269 99.5179 24.1343 110.366 31.8649 119.378C39.5956 128.278 48.8506 132.728 59.63 132.728C70.4094 132.728 79.6099 128.278 87.2317 119.378C94.8534 110.366 98.6643 99.5179 98.6643 86.8347C98.6643 74.1513 94.8534 63.3037 87.2317 54.2918ZM59.63 131.56C48.9595 131.56 39.8134 127.222 32.1916 118.543C24.6787 109.753 20.9223 99.1843 20.9223 86.8347C20.9223 74.4851 24.6787 63.9713 32.1916 55.2931C39.8134 46.5037 48.9595 42.1091 59.63 42.1091C70.1916 42.1091 79.2288 46.5037 86.7417 55.2931C94.2549 63.9713 98.0113 74.4851 98.0113 86.8347C98.0113 99.1843 94.2549 109.753 86.7417 118.543C79.2288 127.222 70.1916 131.56 59.63 131.56ZM59.63 43.611C49.3951 43.611 40.63 47.8388 33.3349 56.2945C26.1487 64.7501 22.5555 74.9301 22.5555 86.8347C22.5555 98.7395 26.1487 108.919 33.3349 117.375C40.63 125.831 49.3951 130.058 59.63 130.058C69.756 130.058 78.4122 125.831 85.5984 117.375C92.7847 108.919 96.3779 98.7395 96.3779 86.8347C96.3779 74.9301 92.7847 64.7501 85.5984 56.2945C78.4122 47.8388 69.756 43.611 59.63 43.611ZM77.5956 109.531C72.6959 115.762 66.7073 118.877 59.63 118.877C52.5527 118.877 46.4552 115.762 41.3378 109.531C36.3291 103.19 33.8249 95.624 33.8249 86.8347C33.8249 77.9341 36.3291 70.3685 41.3378 64.1382C46.4552 57.7964 52.5527 54.6256 59.63 54.6256C66.7073 54.6256 72.6959 57.7964 77.5956 64.1382C82.6042 70.3685 85.1084 77.9341 85.1084 86.8347C85.1084 95.7352 82.6042 103.301 77.5956 109.531ZM59.63 56.2945C52.8792 56.2945 47.1085 59.2984 42.3177 65.3064C37.6357 71.2029 35.2947 78.3791 35.2947 86.8347C35.2947 95.2903 37.6357 102.522 42.3177 108.53C47.1085 114.427 52.8792 117.375 59.63 117.375C66.2718 117.375 71.9337 114.427 76.6156 108.53C81.2976 102.522 83.6385 95.2903 83.6385 86.8347C83.6385 78.3791 81.2976 71.2029 76.6156 65.3064C71.9337 59.2984 66.2718 56.2945 59.63 56.2945ZM75.6357 107.695C71.2804 113.369 65.9452 116.207 59.63 116.207C53.3148 116.207 47.8707 113.369 43.2976 107.695C38.8334 101.91 36.6013 94.9567 36.6013 86.8347C36.6013 78.7129 38.8334 71.8149 43.2976 66.1408C47.8707 60.3554 53.3148 57.4627 59.63 57.4627C65.9452 57.4627 71.2804 60.3554 75.6357 66.1408C80.0999 71.8149 82.3319 78.7129 82.3319 86.8347C82.3319 94.9567 80.0999 101.91 75.6357 107.695ZM74.6558 67.1421C70.5182 61.6905 65.5097 58.9647 59.63 58.9647C53.7503 58.9647 48.6873 61.6905 44.4409 67.1421C40.1945 72.5937 38.0712 79.1579 38.0712 86.8347C38.0712 94.5119 40.1945 101.076 44.4409 106.527C48.6873 111.979 53.7503 114.705 59.63 114.705C65.5097 114.705 70.5182 111.979 74.6558 106.527C78.7933 101.076 80.8621 94.5119 80.8621 86.8347C80.8621 79.1579 78.7933 72.5937 74.6558 67.1421ZM82.3319 45.113H82.0053C74.1658 40.7741 66.2718 38.6045 58.3234 38.6045C55.1658 38.6045 52.226 38.8827 49.5039 39.439C44.2775 40.5515 40.0856 42.3873 36.928 44.9461C36.8191 45.0574 36.6558 45.113 36.4381 45.113C36.2202 45.113 36.0025 45.0018 35.7847 44.7792L31.2117 36.1012V35.7674C31.2117 35.6562 31.375 35.4337 31.7016 35.0999C39.7589 29.7595 48.6329 27.0893 58.3234 27.0893C62.0254 27.0893 65.7818 27.4787 69.5927 28.2575C74.4925 29.1476 80.2632 31.4284 86.905 35.0999L87.5583 35.7674V35.9343L87.395 36.1012L82.9853 44.7792C82.7675 45.0018 82.5498 45.113 82.3319 45.113ZM36.7646 43.2773C43.0798 39.0496 50.2116 36.9357 58.16 36.9357H58.3234C66.2718 36.9357 74.1658 39.0496 82.0053 43.2773L85.5984 36.1012C79.9366 32.986 74.4925 30.8721 69.2661 29.7595C65.673 28.9807 62.0254 28.5913 58.3234 28.5913C49.2861 28.5913 40.9022 31.0946 33.1715 36.1012L36.7646 43.2773ZM69.2661 131.894C69.2661 131.338 69.5383 131.06 70.0827 131.06C70.1916 131.06 70.4094 131.227 70.736 131.56C73.3492 137.346 74.6558 142.464 74.6558 146.914C74.6558 152.032 73.1314 156.871 70.0827 161.433C66.8162 165.883 63.3864 169.054 59.7933 170.945H59.4666H58.8134C49.1228 164.715 44.2775 156.593 44.2775 146.58C44.2775 141.129 45.5841 136.122 48.1973 131.56C48.415 131.338 48.6329 131.227 48.8506 131.227C49.3951 131.227 49.6672 131.449 49.6672 131.894V132.061L49.5039 132.228C47.1085 136.901 45.9108 141.685 45.9108 146.58C45.9108 155.703 50.4294 163.268 59.4666 169.277C63.2776 166.94 66.4896 163.825 69.1028 159.931C71.716 156.037 73.0225 151.698 73.0225 146.914C73.0225 142.575 71.7704 137.679 69.2661 132.228V131.894ZM65.8362 132.728C65.8362 132.172 66.1629 131.894 66.8162 131.894C66.9251 131.894 67.1428 132.061 67.4695 132.394C69.9739 137.513 71.2259 142.241 71.2259 146.58C71.2259 150.808 70.0827 154.758 67.7962 158.429C65.6185 162.101 62.9509 164.826 59.7933 166.606H59.4666H59.14L58.8134 166.439C51.4093 161.433 47.7074 154.813 47.7074 146.58C47.7074 141.24 48.8506 136.511 51.1371 132.394C51.4638 132.061 51.6816 131.894 51.7904 131.894C52.4437 131.894 52.7704 132.172 52.7704 132.728C52.7704 132.84 52.7159 132.896 52.6071 132.896C52.6071 132.896 52.6071 132.951 52.6071 133.063C50.3206 137.735 49.1773 142.241 49.1773 146.58C49.1773 154.035 52.6071 160.154 59.4666 164.937C66.2173 160.376 69.5927 154.257 69.5927 146.58C69.5927 142.686 68.395 138.18 65.9996 133.063C65.9996 132.951 65.9452 132.896 65.8362 132.896C65.8362 132.896 65.8362 132.84 65.8362 132.728ZM25.4953 97.0149C25.4953 94.9011 26.9108 93.8438 29.7418 93.8438C31.5928 93.8438 32.6816 94.7899 33.0082 96.6813L33.4982 99.5179L26.1487 100.853L25.6587 98.1826C25.6587 98.0714 25.6042 97.9046 25.4953 97.6822C25.4953 97.3485 25.4953 97.1261 25.4953 97.0149ZM31.7016 98.1826C31.5928 97.6265 31.4839 97.2373 31.375 97.0149C31.375 96.6813 31.2117 96.4033 30.885 96.18C30.6673 95.8464 30.3406 95.6796 29.9051 95.6796C28.0541 95.6796 27.1286 96.18 27.1286 97.1817C27.1286 97.9602 27.183 98.5171 27.2919 98.8507L31.7016 98.1826ZM24.6787 91.8412V90.0056L32.1916 89.6718V91.5076L24.6787 91.8412ZM29.5784 81.3274C31.2117 81.3274 32.0283 82.3288 32.0283 84.3314V84.6652C32.0283 86.3341 30.9939 87.2797 28.9251 87.5023V85.8334H29.0884C29.9595 85.8334 30.395 85.3327 30.395 84.3314C30.395 83.5526 30.1229 83.1632 29.5784 83.1632C29.3607 83.1632 29.1429 83.4413 28.9251 83.9976C28.7073 84.4427 28.4896 84.9433 28.2718 85.4996C28.0541 86.0559 27.8908 86.3897 27.7818 86.5009C27.3463 86.946 26.8563 87.1685 26.312 87.1685C24.8965 87.1685 24.1887 86.3341 24.1887 84.6652V84.3314C24.1887 83.6639 24.4065 83.0519 24.8421 82.4956C25.3865 81.8281 25.9853 81.4943 26.6386 81.4943H26.8019H26.9653V83.1632H26.8019C26.1487 83.1632 25.822 83.5526 25.822 84.3314V84.4983C25.822 85.1658 25.9853 85.4996 26.312 85.4996C26.5297 85.4996 26.6931 85.2771 26.8019 84.8321C27.0197 84.387 27.183 83.8864 27.2919 83.3301C27.5097 82.7738 27.673 82.44 27.7818 82.3288C28.2174 81.6612 28.8163 81.3274 29.5784 81.3274ZM29.9051 79.3248C28.7073 79.3248 27.673 78.991 26.8019 78.3235C25.9308 77.6559 25.4953 76.7659 25.4953 75.6533C25.4953 74.7632 25.7676 74.04 26.312 73.4837C26.8563 72.8162 27.5641 72.4824 28.4352 72.4824H28.5985V74.1513H28.4352C27.5641 74.1513 27.1286 74.652 27.1286 75.6533C27.1286 76.9884 28.0541 77.6559 29.9051 77.6559C31.1028 77.6559 31.7016 77.0996 31.7016 75.987C31.7016 75.6533 31.2661 75.2082 30.395 74.652L31.5383 73.15C32.736 73.8175 33.3349 74.7076 33.3349 75.8202C33.3349 76.7102 33.0082 77.5447 32.3549 78.3235C31.7016 78.991 30.885 79.3248 29.9051 79.3248ZM34.6415 71.8149L27.9452 68.3103L30.5584 63.4706L32.0283 64.1382L30.0684 67.4759L31.2117 68.1434L33.0082 64.9726L34.3148 65.6401L32.6816 68.811L34.1515 69.6453L35.9481 65.9739L37.2546 66.6414L34.6415 71.8149ZM43.2976 59.4653L41.3378 51.6216L42.6443 50.6203L49.5039 54.9594L48.034 56.1276L46.5641 54.9594L44.2775 56.6282L44.7675 58.2971L43.2976 59.4653ZM43.2976 52.9567L43.9509 54.9594L45.0942 54.1249L43.2976 52.9567ZM55.0569 51.6216C55.0569 53.2905 53.8047 54.1249 51.3005 54.1249C50.1027 54.1249 49.2861 53.1792 48.8506 51.2878L47.8707 47.4494L49.5039 46.9488L50.4839 50.9541C50.7016 51.9554 51.1371 52.4561 51.7904 52.4561C52.7704 52.4561 53.2603 52.1779 53.2603 51.6216C53.2603 50.9541 53.2059 50.509 53.097 50.2865L51.7904 46.2812L53.587 45.7806L54.7303 49.619C54.948 50.2865 55.0569 50.9541 55.0569 51.6216ZM60.7732 53.1236L58.8134 52.9567L58.9767 47.1157L57.0168 46.9488V45.4468L63.0598 45.7806V47.1157H60.9365L60.7732 53.1236ZM75.6357 58.9647C74.8736 58.9647 74.1658 58.6309 73.5125 57.9633L71.2259 56.2945L75.9623 50.4534L78.0856 52.1223C79.0655 52.9011 79.5555 53.7355 79.5555 54.6256C79.5555 55.6269 79.1199 56.5726 78.2489 57.4627C77.4867 58.3527 76.6701 58.8534 75.7991 58.9647H75.6357ZM75.4724 57.2958C75.9079 57.2958 76.3979 56.962 76.9423 56.2945C77.5956 55.6269 77.9222 55.015 77.9222 54.4587C77.9222 53.9024 77.4322 53.2905 76.4523 52.6229L73.6758 56.2945C74.6558 56.962 75.2546 57.2958 75.4724 57.2958ZM78.4122 62.8031L77.4322 61.3011L83.1486 56.6282L84.2919 57.9633L78.4122 62.8031ZM85.7618 72.8162C85.7618 73.7063 86.3606 74.1513 87.5583 74.1513H87.7216H87.885V75.987H87.5583C86.6873 75.987 85.9251 75.6533 85.2718 74.9857C84.6185 74.3182 84.2919 73.5394 84.2919 72.6493C84.2919 71.648 84.7274 70.8135 85.5984 70.146C86.4695 69.3672 87.4495 68.9778 88.5383 68.9778C89.5181 68.9778 90.3352 69.3672 90.9882 70.146C91.75 70.8135 92.1318 71.648 92.1318 72.6493C92.1318 73.6506 91.5867 74.4851 90.4984 75.1526L89.6813 73.6506C90.2263 73.4281 90.4984 72.9831 90.4984 72.3155C90.4984 71.3142 89.9534 70.8135 88.8649 70.8135C88.2116 70.8135 87.5039 71.0361 86.7417 71.4811C86.0885 71.8149 85.7618 72.2599 85.7618 72.8162ZM86.5784 83.9976L86.0885 78.1566L93.4377 77.489L94.2549 82.8294L92.6215 82.9963L92.1318 79.3248L90.9882 79.4917L91.3146 82.9963H89.8445L89.518 79.6586L87.885 79.8255L88.2116 83.8307L86.5784 83.9976ZM90.3352 92.6761C87.9394 92.4528 86.7417 91.3408 86.7417 89.338V89.0042L86.905 86.1672L94.5813 86.6678L94.4181 89.338C94.2004 91.5632 93.0024 92.6761 90.8249 92.6761H90.6617H90.3352ZM90.8249 91.0069C92.1318 91.0069 92.7848 90.2281 92.7848 88.6705V88.3367L88.375 88.0029V89.338C88.375 90.4506 89.1916 91.0069 90.8249 91.0069ZM92.1318 101.687L90.6617 101.354L91.6411 97.5154L90.3352 97.1817L89.518 100.686L88.0483 100.353L88.8649 96.8481L87.395 96.3468L86.2517 100.353L84.7819 100.018L86.0885 94.3442L93.4377 96.18L92.1318 101.687ZM83.6385 68.4771C82.8764 68.4771 82.1687 68.1434 81.5153 67.4759C80.9709 66.6971 80.6988 65.8627 80.6988 64.9726C80.6988 64.0825 81.2432 63.3037 82.3319 62.6362L83.1486 63.9713C82.6042 64.305 82.3319 64.6945 82.3319 65.1395C82.3319 66.1408 82.7131 66.6414 83.4753 66.6414C83.9108 66.6414 84.1285 66.419 84.1285 65.9739V65.807C84.1285 65.6958 84.0741 65.362 83.9652 64.8057C83.8564 64.2494 83.8019 63.86 83.8019 63.6375C83.8019 62.0799 84.4552 61.3011 85.7618 61.3011C86.524 61.3011 87.1772 61.6905 87.7216 62.4693C88.2661 63.1368 88.5383 63.86 88.5383 64.6388C88.5383 65.6401 88.1027 66.3633 87.2317 66.8084L86.2517 65.3064C86.5784 64.9726 86.7417 64.6945 86.7417 64.4719C86.7417 63.5819 86.4695 63.1368 85.9251 63.1368C85.5984 63.1368 85.4351 63.3037 85.4351 63.6375C85.4351 63.9713 85.4895 64.4163 85.5984 64.9726C85.7073 65.5289 85.7618 65.9739 85.7618 66.3077C85.7618 67.754 85.054 68.4771 83.6385 68.4771ZM39.3778 40.1065L36.928 35.4337L40.5211 33.5979L40.8478 34.5992L38.5612 35.7674L39.0512 36.7688L41.0111 35.9343L41.5011 36.7688L39.3778 37.6032L40.3577 39.6058L39.3778 40.1065ZM39.3778 40.2734L36.7646 35.2668L40.5211 33.5979L41.0111 34.7661L38.7246 35.7674L39.0512 36.6019L41.1744 35.7674L41.6643 36.7688L39.5412 37.7701L40.5211 39.7727L39.3778 40.2734ZM37.2546 35.4337L39.5412 39.9396L40.1945 39.6058L39.2145 37.6032L41.1744 36.7688L41.0111 36.1012L39.0512 37.1025L38.0712 35.6006L40.6844 34.5992L40.3577 34.0986L37.2546 35.4337ZM44.2775 38.1039L42.8077 32.9304L43.9509 32.7635L45.0942 37.1025L47.8707 36.2681L48.034 37.1025L44.2775 38.1039ZM44.2775 38.4376L42.6443 32.9304L43.9509 32.5966L45.4209 36.9357L47.8707 36.1012L48.3606 37.2694L44.2775 38.4376ZM43.1343 33.0972L44.4409 37.937L47.8707 37.1025L47.7074 36.435L45.0942 37.2694L43.7876 32.9304L43.1343 33.0972ZM52.1171 36.2681C50.375 36.2681 49.5039 35.2112 49.5039 33.0972C49.5039 31.5396 50.4839 30.7608 52.4437 30.7608C53.097 30.7608 53.6414 31.0946 54.077 31.7622C54.6214 32.3184 54.8936 32.9304 54.8936 33.5979C54.8936 35.378 53.9681 36.2681 52.1171 36.2681ZM50.6471 33.2641C50.6471 34.7105 51.2461 35.4337 52.4437 35.4337C53.3148 35.4337 53.7503 34.8217 53.7503 33.5979C53.7503 32.2628 53.2059 31.5953 52.1171 31.5953C51.1371 31.5953 50.6471 32.1516 50.6471 33.2641ZM55.0569 33.5979C55.0569 34.3767 54.7303 35.0443 54.077 35.6006C53.5326 36.1568 52.8248 36.435 51.9537 36.435C50.3206 36.435 49.5039 35.3224 49.5039 33.0972C49.5039 31.4284 50.4839 30.5939 52.4437 30.5939C54.1858 30.5939 55.0569 31.5953 55.0569 33.5979ZM54.8936 33.5979C54.8936 31.8178 54.1314 30.9277 52.6071 30.9277H52.4437C50.7016 30.9277 49.8306 31.6509 49.8306 33.0972C49.8306 35.0999 50.5927 36.1012 52.1171 36.1012C52.7704 36.1012 53.3692 35.8787 53.9137 35.4337C54.5669 34.8774 54.8936 34.2655 54.8936 33.5979ZM53.9137 33.5979C53.9137 34.933 53.4782 35.6006 52.6071 35.6006H52.4437C52.0082 35.6006 51.5727 35.378 51.1371 34.933C50.8105 34.3767 50.6471 33.8204 50.6471 33.2641C50.6471 32.0403 51.1371 31.4284 52.1171 31.4284C53.3148 31.4284 53.9137 32.1516 53.9137 33.5979ZM53.7503 33.5979C53.7503 32.3741 53.3148 31.7622 52.4437 31.7622H52.1171H51.9537C51.1916 31.7622 50.8105 32.2628 50.8105 33.2641C50.8105 34.5992 51.3549 35.2668 52.4437 35.2668C53.3148 35.2668 53.7503 34.7105 53.7503 33.5979ZM61.2632 35.7674C61.1543 35.6562 61.0455 35.4893 60.9365 35.2668C60.8277 35.0443 60.7188 34.8774 60.61 34.7661C60.501 34.5436 60.3377 34.3211 60.12 34.0986C60.011 33.8761 59.8477 33.7092 59.63 33.5979C59.4122 33.4867 59.1945 33.431 58.9767 33.431H58.8134H58.65V35.7674H57.5068V30.4271H59.9566H60.12C61.4265 30.4271 62.0798 30.8721 62.0798 31.7622V31.929C62.0798 32.8191 61.5899 33.2641 60.61 33.2641C60.9365 33.4867 61.5354 34.3211 62.4065 35.7674H61.2632ZM60.9365 31.929C60.9365 31.484 60.6644 31.2615 60.12 31.2615H59.63H58.65V32.5966H59.63H59.7933C60.5555 32.5966 60.9365 32.3741 60.9365 31.929ZM62.2431 31.929C62.2431 32.7078 61.8076 33.2085 60.9365 33.431C61.2632 33.6535 61.862 34.488 62.7331 35.9343H61.0999C60.991 35.8231 60.8821 35.6562 60.7732 35.4337C60.6644 35.2112 60.5555 35.0443 60.4466 34.933C60.3377 34.7105 60.1744 34.488 59.9566 34.2655C59.8477 34.0429 59.6845 33.8761 59.4666 33.7648C59.2489 33.6535 59.0311 33.5979 58.8134 33.5979V35.9343H57.3434V30.2602H59.9566H60.12C61.5354 30.2602 62.2431 30.8165 62.2431 31.929ZM58.9767 33.431C59.4122 33.431 60.1744 34.1542 61.2632 35.6006H62.2431C61.3721 34.2655 60.7188 33.4867 60.2833 33.2641C61.3721 33.0416 61.9166 32.5966 61.9166 31.929C61.9166 31.039 61.3176 30.5939 60.12 30.5939H59.9566H57.6701V35.7674H58.4867V33.431H58.8134H58.9767ZM61.0999 31.929C61.0999 32.4853 60.6644 32.7635 59.7933 32.7635H59.63H58.4867V31.0946H59.63H59.9566C60.7188 31.0946 61.0999 31.3727 61.0999 31.929ZM60.7732 31.929C60.7732 31.5953 60.501 31.4284 59.9566 31.4284H59.63H58.8134V32.4297H59.63H59.7933C60.4466 32.4297 60.7732 32.2628 60.7732 31.929ZM64.8563 36.1012L65.5097 30.7608L69.5927 31.2615L69.4294 32.0959L66.6529 31.7622L66.4896 32.9304L69.1028 33.2641L68.9394 34.2655L66.3262 33.9317L65.9996 35.4337L69.1028 35.7674L68.9394 36.6019L64.8563 36.1012ZM69.1028 36.7688L64.5296 36.2681L65.3463 30.5939L69.5927 31.0946V32.2628L66.6529 31.929V32.7635L69.2661 33.0972L69.1028 34.4323L66.4896 34.0986L66.3262 35.2668L69.2661 35.6006L69.1028 36.7688ZM65.0197 35.9343L68.7761 36.435L68.9394 35.7674L65.8362 35.4337L65.9996 33.5979L68.7761 34.0986L68.9394 33.431L65.9996 33.0972L66.4896 31.5953L69.2661 31.929V31.4284L65.5097 30.9277L65.0197 35.9343ZM75.6357 38.7714L74.6558 38.4376V37.1025L72.5325 36.435L71.5526 37.4363L70.5727 37.1025L74.3291 32.5966L75.4724 32.9304L75.6357 38.7714ZM74.4925 36.2681V34.0986L73.0225 35.7674L74.4925 36.2681ZM75.7991 39.1052L74.4925 38.6045V37.2694L72.5325 36.6019L71.716 37.6032L70.246 37.1025L74.3291 32.4297L75.6357 32.9304L75.7991 39.1052ZM74.819 38.2708L75.4724 38.6045L75.3091 33.0972L74.4925 32.7635L70.736 36.9357L71.5526 37.2694L72.3692 36.2681L74.6558 37.1025L74.819 38.2708ZM74.6558 36.435L72.6959 35.7674L74.6558 33.5979V36.435ZM73.5125 35.6006L74.3291 35.9343V34.5992L73.5125 35.6006ZM77.9222 39.6058L79.5555 35.6006L78.2489 34.933L78.5755 34.2655L82.4953 35.9343L82.1687 36.6019L80.8621 36.1012L78.9022 40.1065L77.9222 39.6058ZM78.9022 40.2734L77.5956 39.7727L79.3922 35.7674L77.9222 35.0999L78.4122 34.0986L82.6586 35.7674L82.3319 36.9357L80.8621 36.2681L78.9022 40.2734ZM78.0856 39.6058L78.7388 39.9396L80.6988 35.9343L82.0053 36.435L82.3319 35.9343L78.5755 34.4323L78.4122 34.933L79.7188 35.6006L78.0856 39.6058ZM58.3234 25.5873C56.1458 25.5873 54.1858 25.7542 52.4437 26.088C50.7016 26.3105 49.4495 26.5886 48.6873 26.9224L47.3807 27.4231C47.163 27.4231 46.9452 27.3118 46.7274 27.0893L37.7447 16.2417C37.6357 16.1305 37.5813 15.9636 37.5813 15.7411C37.5813 15.5186 37.6357 15.3517 37.7447 15.2404C44.0598 9.34369 50.9738 6.39539 58.4867 6.39539C61.971 6.39539 65.0197 6.84043 67.6328 7.73049C72.4237 9.28808 76.8334 11.9027 80.8621 15.5742C80.9709 15.6855 81.0254 15.8523 81.0254 16.0749C81.0254 16.2974 80.9709 16.4643 80.8621 16.5755L72.0426 27.0893C71.9337 27.2006 71.716 27.2562 71.3893 27.2562H71.2259C66.4352 26.1436 62.1343 25.5873 58.3234 25.5873ZM57.6701 23.9185C61.3721 23.9185 65.8362 24.4747 71.0626 25.5873L79.0655 16.2417C72.5325 10.6788 65.673 7.89738 58.4867 7.89738C51.9537 7.89738 45.6386 10.5676 39.5412 15.908L47.544 25.4204C50.7016 24.4191 54.077 23.9185 57.6701 23.9185ZM76.4523 17.243C72.5325 17.243 69.2661 16.5199 66.6529 15.0735C64.1486 15.7411 61.4265 16.0749 58.4867 16.0749C56.0913 16.0749 54.077 15.7411 52.4437 15.0735C49.9395 16.5199 46.9452 17.243 43.4609 17.243C39.5412 17.243 37.5813 16.7424 37.5813 15.7411C37.5813 15.2961 37.9079 15.0735 38.5612 15.0735C38.6701 15.0735 38.9423 15.1292 39.3778 15.2404C39.8134 15.3517 40.4123 15.4629 41.1744 15.5742C41.9366 15.6855 42.7532 15.7411 43.6243 15.7411C46.673 15.7411 49.3951 15.0179 51.7904 13.5716C51.8993 13.5716 51.9537 13.5716 51.9537 13.5716C51.9537 13.4603 52.0082 13.4047 52.1171 13.4047C52.226 13.4047 52.3348 13.4603 52.4437 13.5716C52.5527 13.5716 52.6615 13.5716 52.7704 13.5716C53.8593 14.2391 55.7647 14.5729 58.4867 14.5729C60.8821 14.5729 63.5497 14.1835 66.4896 13.4047H66.6529H66.8162C66.9251 13.5159 67.034 13.5716 67.1428 13.5716C69.756 15.0179 72.8048 15.7411 76.289 15.7411C76.6156 15.7411 77.2145 15.6855 78.0856 15.5742C78.9566 15.4629 79.6099 15.4073 80.0454 15.4073C80.6988 15.4073 81.0254 15.6298 81.0254 16.0749C81.0254 16.8536 79.501 17.243 76.4523 17.243ZM56.5269 24.7529C56.5269 25.3092 56.2546 25.5873 55.7102 25.5873C55.3836 25.5873 55.1658 25.4204 55.0569 25.0867L51.4638 14.406V14.2391V13.9053C51.8993 12.459 52.7704 11.1239 54.077 9.89998C55.3836 8.67618 56.5269 7.78612 57.5068 7.22983C58.5956 6.67354 59.2489 6.39539 59.4666 6.39539C59.6845 6.39539 60.3377 6.72917 61.4265 7.39672C62.5154 7.95301 63.6586 8.84307 64.8563 10.0669C66.1629 11.2908 67.034 12.5702 67.4695 13.9053V14.2391V14.406L64.0397 25.0867C63.822 25.4204 63.5497 25.5873 63.2231 25.5873H63.0598C62.6242 25.5873 62.4065 25.3648 62.4065 24.9198L62.5698 24.586L65.673 14.2391C65.0197 12.1252 62.9509 10.0669 59.4666 8.06426C55.9824 10.0669 53.8593 12.1252 53.097 14.2391L56.5269 24.586V24.7529ZM70.4094 24.2522C69.6472 24.2522 68.6673 24.0853 67.4695 23.7516C66.3807 23.4178 65.8362 23.084 65.8362 22.7502L65.9996 22.5834L67.6328 17.7437C67.8506 17.4099 68.0683 17.243 68.2862 17.243C68.8305 17.243 69.8105 17.4655 71.2259 17.9106C72.6414 18.2443 73.567 18.4112 74.0025 18.4112C74.438 18.4112 74.6558 18.6337 74.6558 19.0787L74.4925 19.4125V19.7463L71.2259 24.0853C71.1171 24.1966 70.8993 24.2522 70.5727 24.2522H70.4094ZM67.7962 22.2496L70.246 22.7502L72.3692 19.7463C71.9337 19.635 71.2259 19.4681 70.246 19.2456C69.3749 19.0231 68.885 18.9118 68.7761 18.9118L67.7962 22.2496ZM52.9338 22.7502C52.9338 23.084 52.3348 23.4178 51.1371 23.7516C50.0483 24.0853 49.1228 24.2522 48.3606 24.2522C48.034 24.2522 47.8162 24.1966 47.7074 24.0853L44.4409 19.7463V19.4125L44.2775 19.0787C44.2775 18.6337 45.0942 18.2443 46.7274 17.9106C48.3606 17.4655 49.6128 17.243 50.4839 17.243C50.8105 17.243 51.0827 17.4099 51.3005 17.7437L52.9338 22.5834V22.7502ZM46.5641 19.9132L48.6873 22.7502L50.9738 22.2496L49.9939 18.9118C49.7761 18.9118 49.2317 19.0787 48.3606 19.4125C47.5985 19.635 46.9996 19.8019 46.5641 19.9132ZM62.8965 16.7424C63.4409 16.7424 63.7131 17.0205 63.7131 17.5768L63.5497 17.9106L61.9166 22.5834C61.8076 22.9171 61.5899 23.084 61.2632 23.084H57.3434C57.0168 23.084 56.799 22.9171 56.6902 22.5834L55.3836 17.7437L55.2203 17.5768C55.2203 17.0205 55.4924 16.7424 56.0368 16.7424C57.6701 16.8537 59.14 16.9093 60.4466 16.9093C60.7732 16.9093 61.2088 16.9093 61.7532 16.9093C62.4065 16.798 62.7876 16.7424 62.8965 16.7424ZM57.9968 21.582H60.7732L61.7532 18.4112H57.0168L57.9968 21.582ZM57.5068 6.72917C58.0512 6.72917 58.3234 7.00731 58.3234 7.5636C58.3234 8.00864 58.1056 8.23115 57.6701 8.23115C51.3549 9.45498 47.1085 12.2921 44.9309 16.7424C44.8219 17.0762 44.6042 17.243 44.2775 17.243C43.7331 17.243 43.4609 16.9649 43.4609 16.4086C43.4609 15.9636 43.7876 15.1848 44.4409 14.0722C45.203 12.9596 46.7274 11.6245 49.014 10.0669C51.3005 8.5093 54.077 7.39672 57.3434 6.72917H57.5068ZM75.3091 15.908C75.3091 16.4643 75.0369 16.7424 74.4925 16.7424C74.3835 16.7424 73.6214 16.0749 72.2059 14.7398C70.8993 13.4047 69.2116 12.0696 67.1428 10.7345C65.0741 9.39938 63.0053 8.73181 60.9365 8.73181C60.3921 8.73181 60.12 8.5093 60.12 8.06426C60.12 7.50797 60.3921 7.22983 60.9365 7.22983C63.0053 7.22983 65.2374 7.95301 67.6328 9.39938C70.0283 10.7345 71.8793 12.0696 73.1859 13.4047C74.6013 14.7398 75.3091 15.5742 75.3091 15.908ZM62.0798 2.89078C62.0798 3.66959 61.6987 4.50402 60.9365 5.39408C60.1744 6.17289 59.7933 6.72917 59.7933 7.06294H58.8134C58.8134 6.72917 58.4323 6.06163 57.6701 5.06031C57.0168 4.05898 56.6902 3.28019 56.6902 2.7239C56.6902 0.943776 57.5068 0.0537109 59.14 0.0537109C61.0999 0.0537109 62.0798 0.999397 62.0798 2.89078ZM37.9079 16.4086C36.3836 15.0735 35.077 14.3504 33.9881 14.2391C33.226 14.0166 32.8449 13.5159 32.8449 12.7371C32.8449 12.1808 33.0627 11.7358 33.4982 11.402C33.9337 11.0682 34.4237 11.0126 34.9681 11.2351C35.6214 11.4576 36.1114 12.0139 36.4381 12.904C36.5469 13.349 36.6558 13.7384 36.7646 14.0722C36.9824 14.406 37.1457 14.6841 37.2546 14.9066C37.4724 15.0179 37.5813 15.1292 37.5813 15.2404C37.6901 15.2404 37.7991 15.2961 37.9079 15.4073H38.0712L37.9079 16.4086ZM80.6988 16.9093L80.5354 15.7411C81.1887 15.0735 81.6787 14.2391 82.0053 13.2378C82.3319 12.1252 82.8764 11.5133 83.6385 11.402C84.5096 11.1795 85.054 11.2908 85.2718 11.7358C85.5984 11.9583 85.7618 12.4033 85.7618 13.0709C85.7618 13.7384 85.3262 14.2391 84.4552 14.5729C83.4753 14.9066 82.2231 15.6855 80.6988 16.9093ZM105.361 64.9726C105.361 64.4163 105.579 64.1382 106.014 64.1382C106.34 64.1382 106.612 64.3607 106.83 64.8057C109.117 73.3725 110.26 81.0493 110.26 87.836C110.26 102.189 106.123 114.705 97.848 125.386C93.8186 130.725 89.4092 134.954 84.6185 138.069C79.8277 141.295 76.3435 143.02 74.1658 143.242H74.0025C73.567 143.242 73.3492 143.02 73.3492 142.575C73.3492 142.018 73.567 141.74 74.0025 141.74H74.1658C75.9079 141.74 79.0655 140.182 83.6385 137.068C88.3205 133.952 92.6759 129.78 96.7044 124.551C104.761 114.093 108.79 101.854 108.79 87.836C108.79 81.0493 107.647 73.4837 105.361 65.1395V64.9726ZM72.0426 137.902C71.607 137.902 71.3893 137.679 71.3893 137.235C71.3893 136.566 72.1514 135.232 73.6758 133.229C74.7646 131.894 76.0712 131.227 77.5956 131.227C78.0312 131.227 78.2489 131.338 78.2489 131.56C78.5755 132.561 78.7388 133.619 78.7388 134.732C78.7388 137.957 77.3778 140.739 74.6558 143.076C74.5469 143.187 74.3835 143.242 74.1658 143.242C73.6214 143.242 73.3492 142.964 73.3492 142.408C73.3492 142.296 73.458 142.129 73.6758 141.907C76.0712 139.904 77.2689 137.513 77.2689 134.732C77.2689 133.73 77.2145 133.063 77.1057 132.728C76.3435 132.951 75.4724 133.563 74.4925 134.564C73.6214 135.566 73.077 136.511 72.8592 137.401C72.6414 137.735 72.3692 137.902 72.0426 137.902ZM84.1285 126.553C85.2174 126.553 85.7618 128.111 85.7618 131.227C85.7618 135.454 83.5297 138.681 79.0655 140.906H78.7388C78.3033 140.906 78.0856 140.684 78.0856 140.238C77.65 139.126 77.4322 137.846 77.4322 136.4C77.4322 131.95 79.501 128.667 83.6385 126.553H84.1285ZM79.2288 138.904C82.6042 136.79 84.2919 134.23 84.2919 131.227C84.2919 130.447 84.0741 129.502 83.6385 128.389C80.481 130.281 78.9022 132.951 78.9022 136.4C78.9022 137.179 79.0111 138.013 79.2288 138.904ZM93.1112 126.053C93.1112 127.611 92.6215 129.169 91.6411 130.725C90.7705 132.394 89.8445 133.619 88.8649 134.397C87.885 135.176 87.2317 135.566 86.905 135.566C85.7073 135.566 85.1084 133.619 85.1084 129.725C85.1084 127.722 85.544 125.942 86.415 124.384C87.2861 122.715 88.1027 121.603 88.8649 121.046C89.6269 120.379 90.1719 120.045 90.4984 120.045C90.7161 120.045 90.9337 120.156 91.1514 120.379C92.4583 122.381 93.1112 124.273 93.1112 126.053ZM87.395 133.73C90.2263 131.838 91.6411 129.28 91.6411 126.053C91.6411 124.606 91.2058 123.216 90.3352 121.881C87.8305 124.106 86.5784 126.72 86.5784 129.725C86.5784 130.949 86.8506 132.283 87.395 133.73ZM94.2549 129.057C94.0372 129.057 93.7098 128.778 93.2745 128.222C92.8392 127.666 92.4038 126.776 91.9676 125.553C91.6411 124.328 91.4779 122.993 91.4779 121.547C91.4779 118.321 92.7848 115.372 95.3976 112.702C95.5064 112.591 95.6697 112.535 95.8882 112.535C96.1059 112.535 96.2691 112.591 96.3779 112.702C98.229 114.26 99.154 116.374 99.154 119.043C99.154 122.27 97.7392 125.497 94.9078 128.723C94.6902 128.946 94.5269 129.057 94.4181 129.057H94.2549ZM95.8882 114.371C93.9284 116.707 92.948 119.099 92.948 121.547C92.948 123.328 93.4377 125.108 94.4181 126.887C96.5956 124.106 97.6848 121.492 97.6848 119.043C97.6848 117.374 97.0853 115.818 95.8882 114.371ZM99.154 104.692C99.3717 104.692 99.8079 104.97 100.461 105.526C101.114 105.971 101.768 106.917 102.421 108.363C103.183 109.698 103.564 111.2 103.564 112.869C103.564 115.094 102.693 117.82 100.951 121.046C100.624 121.381 100.406 121.547 100.298 121.547C99.9711 121.547 99.4261 121.325 98.6643 120.879C98.0113 120.323 97.6848 119.878 97.6848 119.545C97.6848 118.877 97.9025 118.543 98.3378 118.543C98.5555 118.543 98.8275 118.765 99.154 119.21C99.5902 119.545 99.8623 119.712 99.9711 119.712C101.277 117.374 101.931 115.094 101.931 112.869C101.931 110.644 101.059 108.641 99.3173 106.861C98.1201 108.975 97.5207 111.033 97.5207 113.036V114.204C97.5207 114.649 97.2486 114.871 96.7044 114.871C96.1603 114.871 95.8882 114.26 95.8882 113.036C95.8882 111.7 96.1059 110.366 96.5412 109.031C96.9765 107.584 97.4118 106.527 97.848 105.859C98.3922 105.081 98.8275 104.692 99.154 104.692ZM106.667 106.194C106.667 110.644 106.014 112.869 104.707 112.869C104.272 112.869 103.673 112.646 102.91 112.202C102.149 111.645 101.768 111.2 101.768 110.866C101.768 110.31 102.04 110.032 102.584 110.032C102.802 110.032 103.128 110.199 103.564 110.533C104 110.755 104.272 110.866 104.381 110.866C104.925 109.309 105.198 107.751 105.198 106.194C105.198 102.856 104 100.408 101.604 98.8507C100.951 100.853 100.624 102.467 100.624 103.69C100.624 104.024 100.733 104.58 100.951 105.359C101.168 106.027 101.277 106.472 101.277 106.694C101.277 107.25 100.951 107.528 100.298 107.528C99.5358 107.528 99.154 106.249 99.154 103.69C99.154 99.1287 99.7535 96.8481 100.951 96.8481C101.059 96.8481 101.277 96.9593 101.604 97.1817C102.04 97.2929 102.53 97.6265 103.074 98.1826C103.619 98.6283 104.163 99.1843 104.707 99.8515C105.252 100.52 105.687 101.409 106.014 102.522C106.449 103.634 106.667 104.858 106.667 106.194ZM107.811 103.023C105.307 102.578 104.054 101.965 104.054 101.187C104.054 100.631 104.326 100.353 104.87 100.353C105.088 100.353 105.524 100.52 106.177 100.853C106.83 101.187 107.212 101.354 107.321 101.354C107.538 100.018 107.647 99.0175 107.647 98.3503C107.647 94.4554 106.068 91.6188 102.91 89.8387C102.693 90.9513 102.584 92.1192 102.584 93.3433C102.584 95.5684 102.856 97.2929 103.401 98.5171C103.51 98.6283 103.564 98.7395 103.564 98.8507C103.564 99.2955 103.292 99.5179 102.747 99.5179C101.55 99.5179 100.951 97.5153 100.951 93.5101C100.951 89.7274 101.441 87.836 102.421 87.836L102.584 88.0029C102.802 88.1142 103.019 88.2254 103.238 88.3367C103.564 88.448 104.108 88.8374 104.87 89.5049C105.633 90.0612 106.286 90.7287 106.83 91.5076C107.484 92.1748 108.028 93.1209 108.463 94.3442C109.009 95.5684 109.281 96.9037 109.281 98.3503C109.281 101.576 108.79 103.134 107.811 103.023ZM110.097 92.5084C110.097 93.0653 109.825 93.3433 109.281 93.3433H108.954C103.619 90.7844 100.951 87.0016 100.951 81.995C100.951 79.8811 101.387 78.8241 102.257 78.8241C102.584 78.8241 103.292 79.0466 104.381 79.4917C105.579 79.9367 106.83 80.8268 108.137 82.1619C109.444 83.3857 110.151 84.8321 110.26 86.5009V86.6678C110.26 87.1129 109.988 87.3354 109.444 87.3354C109.009 87.3354 108.79 87.1129 108.79 86.6678C108.572 84.2201 106.558 82.2175 102.747 80.6599C102.747 80.7711 102.693 80.9937 102.584 81.3274C102.584 81.55 102.584 81.7725 102.584 81.995C102.584 86.6678 104.925 89.9499 109.607 91.8412C109.934 92.0636 110.097 92.286 110.097 92.5084ZM110.097 81.6612C110.097 82.3288 109.444 82.6625 108.137 82.6625C107.049 82.6625 105.959 82.3288 104.87 81.6612C103.564 80.9937 102.475 79.7698 101.604 77.9897C100.733 76.2096 100.189 74.8188 99.9711 73.8175C99.8623 72.7049 99.8079 71.8705 99.8079 71.3142C99.8079 70.7579 100.026 70.4798 100.461 70.4798C101.005 70.4798 101.713 70.591 102.584 70.8135C103.564 70.9248 104.816 71.4811 106.34 72.4824C107.865 73.4837 108.844 74.8745 109.281 76.6546V76.8215C109.281 77.3778 109.063 77.6559 108.627 77.6559C107.974 77.6559 107.647 77.4334 107.647 76.9884C106.994 74.0957 104.979 72.4824 101.604 72.1486C102.149 76.0427 103.51 78.7685 105.687 80.3261C106.994 81.2162 108.083 81.4387 108.954 80.9937C109.063 80.9937 109.117 80.9937 109.117 80.9937C109.117 80.8824 109.172 80.8268 109.281 80.8268C109.825 80.8268 110.097 81.1049 110.097 81.6612ZM107.484 72.1486C108.028 72.1486 108.3 72.4268 108.3 72.9831C108.3 73.4281 108.028 73.6506 107.484 73.6506C106.83 73.5394 105.524 73.2056 103.564 72.6493C102.149 72.2043 100.896 71.1473 99.8079 69.4784C98.7187 67.8096 97.9569 66.3077 97.5207 64.9726C97.0853 63.6375 96.8677 62.8031 96.8677 62.4693C96.8677 61.913 97.1398 61.6349 97.6848 61.6349C102.366 61.6349 105.47 62.9699 106.994 65.6401C106.994 65.7514 107.049 65.9183 107.158 66.1408C107.158 66.5858 106.885 66.8084 106.34 66.8084C106.123 66.8084 105.905 66.6971 105.687 66.4746C104.598 64.6945 102.257 63.6375 98.6643 63.3037C99.9711 67.6428 101.768 70.2573 104.054 71.1473C105.796 71.9261 106.885 72.2599 107.321 72.1486H107.484ZM98.1745 54.2918C98.1745 50.9541 98.7731 49.2852 99.9711 49.2852C101.277 49.2852 102.856 50.4534 104.707 52.7898C106.667 55.3488 107.647 58.6865 107.647 62.8031C107.647 65.9183 107.266 67.4759 106.504 67.4759V67.309C106.068 67.309 105.796 67.1421 105.687 66.8084C105.47 66.1408 105.088 65.5845 104.544 65.1395H104.381C100.243 62.2468 98.1745 58.6309 98.1745 54.2918ZM99.6446 54.2918C99.6446 55.2931 99.7535 56.2388 99.9711 57.1289C100.298 58.019 100.624 58.7978 100.951 59.4653C101.387 60.1329 101.877 60.8004 102.421 61.468C103.074 62.0243 103.564 62.4693 103.891 62.8031C104.326 63.1368 104.761 63.4706 105.198 63.8044L106.014 64.305V62.8031C106.014 59.4653 105.361 56.8508 104.054 54.9594C102.856 52.9567 101.604 51.6216 100.298 50.9541C99.8623 51.9554 99.6446 53.068 99.6446 54.2918ZM77.9222 140.238C79.1199 140.238 80.4265 140.573 81.842 141.24C83.3663 142.018 84.5096 142.742 85.2718 143.409C86.1429 144.188 86.5784 144.689 86.5784 144.911C86.5784 145.023 86.4695 145.189 86.2517 145.412C83.4208 147.414 80.5898 148.527 77.7589 148.75H77.4322C76.779 148.75 75.9079 148.527 74.819 148.082C73.8391 147.748 73.3492 147.303 73.3492 146.747C73.3492 146.302 73.6214 146.079 74.1658 146.079C74.2746 146.079 74.6558 146.247 75.3091 146.58C75.9623 146.914 76.779 147.081 77.7589 147.081C79.8277 147.081 82.0598 146.358 84.4552 144.911C81.842 143.242 79.7188 142.296 78.0856 142.074C76.0168 143.076 74.928 143.743 74.819 144.076C74.6013 144.411 74.3835 144.578 74.1658 144.578C73.6214 144.578 73.3492 144.3 73.3492 143.743C73.3492 142.964 74.7646 141.851 77.5956 140.405C77.7045 140.405 77.7589 140.349 77.7589 140.238C77.7589 140.238 77.8133 140.238 77.9222 140.238ZM85.4351 143.576C82.7131 143.576 81.352 143.242 81.352 142.575C81.352 142.129 81.6243 141.907 82.1687 141.907C82.4953 141.907 82.9853 141.907 83.6385 141.907C84.4008 142.018 84.8907 142.074 85.1084 142.074C88.375 142.074 91.097 140.962 93.2745 138.737C92.0773 137.513 90.444 136.901 88.375 136.901C88.1572 136.901 87.7216 136.957 87.0684 137.068C86.524 137.179 86.0885 137.235 85.7618 137.235C85.3262 137.235 85.1084 136.957 85.1084 136.4C85.1084 135.732 86.1973 135.399 88.375 135.399C89.7901 135.399 91.0426 135.621 92.1318 136.066C93.3289 136.623 94.146 137.123 94.5813 137.568C95.1255 138.013 95.3976 138.402 95.3976 138.737C95.3976 138.959 95.3432 139.126 95.2343 139.237C94.146 140.349 92.6215 141.351 90.6617 142.241C88.7016 143.131 86.9595 143.576 85.4351 143.576ZM97.0309 127.889C98.229 127.889 99.3173 128.056 100.298 128.389C101.387 128.612 102.203 128.89 102.747 129.224C103.292 129.558 103.564 129.891 103.564 130.225V130.392L103.401 130.559C103.401 130.781 103.019 131.338 102.257 132.228C101.604 133.229 100.298 134.286 98.3378 135.399C96.3779 136.511 94.146 137.068 91.6411 137.068C89.6813 137.068 88.7015 136.79 88.7015 136.233C88.7015 135.677 88.9738 135.399 89.518 135.399C89.7357 135.399 90.0622 135.399 90.4984 135.399C91.0426 135.51 91.4235 135.566 91.6411 135.566C96.1059 135.566 99.4261 133.897 101.604 130.559C100.298 129.891 98.7187 129.558 96.8677 129.558C95.452 129.558 94.4181 129.725 93.7642 130.058L93.601 130.225H93.4377C93.0024 130.225 92.7848 129.947 92.7848 129.391C92.7848 128.389 94.2004 127.889 97.0309 127.889ZM110.26 121.381C110.26 121.825 109.825 122.659 108.954 123.884C108.191 124.996 106.776 126.22 104.707 127.555C102.638 128.89 100.352 129.558 97.848 129.558H97.3574C96.8133 129.558 96.5412 129.28 96.5412 128.723C96.5412 128.278 96.8133 128.056 97.3574 128.056H97.848C102.312 128.056 105.851 125.942 108.463 121.714C107.593 121.381 106.449 121.213 105.034 121.213C103.183 121.213 101.496 121.603 99.9711 122.381H99.6446C99.0996 122.381 98.8275 122.159 98.8275 121.714C98.8275 120.379 100.896 119.712 105.034 119.712C108.518 119.712 110.26 120.268 110.26 121.381ZM103.401 115.873C102.965 115.873 102.747 115.595 102.747 115.038C102.747 114.816 102.802 114.649 102.91 114.538C105.088 111.534 107.593 110.032 110.423 110.032L113.853 110.866C114.071 111.089 114.18 111.311 114.18 111.534V111.7C113.744 113.926 112.602 116.096 110.751 118.209C108.9 120.212 106.994 121.213 105.034 121.213C104.598 121.213 104.381 120.935 104.381 120.379C104.381 119.934 104.544 119.712 104.87 119.712C106.504 119.266 108.083 118.321 109.607 116.874C111.132 115.427 112.111 113.871 112.546 112.202C111.24 111.757 110.532 111.534 110.423 111.534C108.246 111.534 106.123 112.869 104.054 115.54C103.836 115.762 103.619 115.873 103.401 115.873ZM114.67 100.185C116.303 100.185 117.12 100.464 117.12 101.02C117.12 101.354 116.902 102.133 116.467 103.356C116.14 104.58 115.432 106.083 114.343 107.862C113.364 109.531 112.166 110.755 110.751 111.534H110.26C109.825 111.534 109.607 111.311 109.607 110.866C109.607 110.644 109.716 110.421 109.934 110.199C112.438 108.752 114.234 105.915 115.323 101.687H114.67C113.581 101.687 112.329 102.077 110.914 102.856C109.498 103.634 108.464 104.469 107.811 105.359C107.593 105.581 107.375 105.693 107.158 105.693C106.721 105.693 106.504 105.359 106.504 104.692C106.504 104.58 106.504 104.525 106.504 104.525C106.612 104.525 106.667 104.469 106.667 104.358C108.627 101.576 111.295 100.185 114.67 100.185ZM109.607 98.0158C109.498 98.3503 109.226 98.5171 108.79 98.5171C108.355 98.5171 108.137 98.1826 108.137 97.5154V97.3485C109.226 94.0106 111.186 91.5632 114.017 90.0056C115.323 89.338 116.685 89.0042 118.099 89.0042C118.536 89.0042 118.753 89.2268 118.753 89.6718C118.753 95.4571 116.303 99.6847 111.404 102.355H111.077C110.532 102.355 110.26 102.133 110.26 101.687C110.26 101.576 110.423 101.354 110.751 101.02C114.67 99.0175 116.848 95.6239 117.283 90.84C113.69 91.6188 111.132 94.0106 109.607 98.0158ZM109.607 94.5119C109.063 94.5119 108.79 94.2886 108.79 93.8438V92.3416C108.79 83.4413 111.893 78.6016 118.099 77.8228C118.645 77.8228 118.917 78.6016 118.917 80.1592C118.917 82.9407 118.045 85.7221 116.303 88.5036C114.562 91.1739 112.438 93.1209 109.934 94.3442C109.825 94.3442 109.77 94.3998 109.77 94.5119C109.77 94.5119 109.716 94.5119 109.607 94.5119ZM110.26 92.5084C112.329 91.3963 114.017 89.6718 115.323 87.3354C116.739 84.8877 117.446 82.4956 117.446 80.1592V79.3248C112.656 80.3261 110.26 84.7208 110.26 92.5084ZM115.323 66.9752C116.413 66.9752 116.957 68.6997 116.957 72.1486C116.957 77.3778 114.779 81.6612 110.423 84.999C110.314 85.1102 110.151 85.1658 109.934 85.1658H109.77C108.79 85.1658 108.3 82.9407 108.3 78.4904C108.3 72.5937 110.478 68.7553 114.834 66.9752H115.323ZM114.67 68.6441C111.513 70.0904 109.934 73.3725 109.934 78.4904C109.934 80.048 110.042 81.4943 110.26 82.8294C113.636 79.3804 115.323 75.8202 115.323 72.1486C115.323 71.5924 115.106 70.4241 114.67 68.6441ZM111.077 55.6269C111.404 55.6269 111.73 55.9607 112.057 56.6282C112.492 57.2958 112.819 58.3527 113.037 59.7991C113.364 61.1342 113.527 62.5805 113.527 64.1382C113.527 68.5884 112.166 71.8705 109.444 73.9844C109.226 74.2069 109.009 74.3182 108.79 74.3182C108.572 74.2069 108.246 73.8175 107.811 73.15C107.375 72.3712 106.939 71.2586 106.504 69.8122C106.177 68.3659 106.014 66.864 106.014 65.3064C106.014 61.1898 107.593 58.019 110.751 55.7938C110.86 55.6825 110.968 55.6269 111.077 55.6269ZM110.914 57.6296C108.627 59.7435 107.484 62.3024 107.484 65.3064C107.484 67.4202 108.028 69.701 109.117 72.1486C111.077 70.0347 112.057 67.3646 112.057 64.1382C112.057 61.5792 111.676 59.4097 110.914 57.6296ZM12.9194 64.1382C13.4638 64.1382 13.736 64.4163 13.736 64.9726L13.5728 65.1395C11.2861 73.4837 10.1429 81.0493 10.1429 87.836C10.1429 101.854 14.1716 114.093 22.2289 124.551C26.2575 129.891 30.6128 134.119 35.2947 137.235C39.9767 140.349 43.1343 141.851 44.7675 141.74H44.9309C45.4753 141.74 45.7474 142.018 45.7474 142.575C45.7474 143.02 45.4753 143.242 44.9309 143.242H44.7675C42.8077 143.242 39.3778 141.629 34.4781 138.402C29.6873 135.176 25.2232 130.837 21.0856 125.386C12.8105 114.705 8.673 102.189 8.673 87.836C8.673 80.2705 9.81622 72.538 12.1028 64.6388C12.3206 64.305 12.5927 64.1382 12.9194 64.1382ZM45.7474 142.408C45.7474 142.964 45.4209 143.242 44.7675 143.242C44.5498 143.242 44.3864 143.187 44.2775 143.076C41.5555 140.962 40.1945 138.18 40.1945 134.732C40.1945 132.394 40.5756 131.227 41.3378 131.227C42.7532 131.338 44.0598 132.005 45.2575 133.229C46.4552 134.453 47.2174 135.732 47.544 137.068V137.235C47.544 137.679 47.3263 137.902 46.8907 137.902C46.5641 137.902 46.2919 137.735 46.0741 137.401C45.8564 136.511 45.2575 135.566 44.2775 134.564C43.4065 133.563 42.5898 132.951 41.8277 132.728C41.7188 133.063 41.6643 133.73 41.6643 134.732C41.6643 137.624 42.9165 140.016 45.4209 141.907C45.6386 142.129 45.7474 142.296 45.7474 142.408ZM41.5011 136.4C41.5011 139.404 41.0655 140.906 40.1945 140.906H39.8678C35.4036 138.681 33.1715 135.454 33.1715 131.227C33.1715 128.111 33.716 126.553 34.8048 126.553H35.2947C39.4323 128.778 41.5011 132.061 41.5011 136.4ZM35.2947 128.389C34.8592 129.502 34.6415 130.447 34.6415 131.227C34.6415 134.23 36.3291 136.79 39.7045 138.904C39.9222 138.013 40.0312 137.179 40.0312 136.4C40.0312 132.951 38.4523 130.281 35.2947 128.389ZM33.8249 129.725C33.8249 133.619 33.226 135.566 32.0283 135.566C31.7016 135.566 31.0484 135.176 30.0684 134.397C29.0884 133.619 28.1085 132.394 27.1286 130.725C26.2575 129.169 25.822 127.611 25.822 126.053C25.822 124.162 26.4752 122.27 27.7818 120.379C27.9997 120.156 28.2174 120.045 28.4352 120.045C28.7618 120.045 29.3063 120.379 30.0684 121.046C30.8306 121.603 31.6472 122.715 32.5183 124.384C33.3893 125.942 33.8249 127.722 33.8249 129.725ZM28.5985 121.881C27.8363 122.993 27.4553 124.384 27.4553 126.053C27.4553 129.28 28.8707 131.838 31.7016 133.73C32.1372 132.394 32.3549 131.116 32.3549 129.891C32.3549 126.665 31.1028 123.995 28.5985 121.881ZM27.4553 121.547C27.4553 122.993 27.2374 124.328 26.8019 125.553C26.4752 126.776 26.0942 127.666 25.6587 128.222C25.332 128.778 25.0054 129.057 24.6787 129.057C24.461 129.057 24.2431 128.946 24.0254 128.723C21.1945 125.275 19.779 122.048 19.779 119.043C19.779 116.374 20.7045 114.26 22.5555 112.702C22.6644 112.591 22.8277 112.535 23.0455 112.535C23.2632 112.535 23.4266 112.591 23.5355 112.702C26.1487 115.372 27.4553 118.321 27.4553 121.547ZM23.0455 114.371C21.8478 115.818 21.249 117.374 21.249 119.043C21.249 121.381 22.3922 123.995 24.6787 126.887C25.5497 125.441 25.9853 123.717 25.9853 121.714C25.9853 118.821 25.0054 116.374 23.0455 114.371ZM21.249 119.545C21.249 119.878 20.8678 120.323 20.1056 120.879C19.4524 121.325 18.9624 121.547 18.6358 121.547C18.4179 121.547 18.2002 121.436 17.9824 121.213C16.2403 118.098 15.3693 115.316 15.3693 112.869C15.3693 111.2 15.6959 109.698 16.3492 108.363C17.1113 106.917 17.8191 105.971 18.4724 105.526C19.1257 104.97 19.5613 104.692 19.779 104.692C20.1056 104.692 20.4867 105.081 20.9223 105.859C21.4667 106.527 21.9566 107.584 22.3922 109.031C22.8277 110.366 23.0455 111.7 23.0455 113.036C23.0455 114.26 22.7733 114.871 22.2289 114.871C21.6845 114.871 21.4122 114.649 21.4122 114.204V113.202C21.4122 111.089 20.8134 108.975 19.6157 106.861C17.7647 108.752 16.8392 110.755 16.8392 112.869C16.8392 114.871 17.5469 117.152 18.9624 119.712C19.0713 119.712 19.289 119.545 19.6157 119.21C20.0512 118.765 20.3779 118.543 20.5956 118.543C21.0311 118.543 21.249 118.877 21.249 119.545ZM17.1659 110.866C17.1659 111.2 16.7303 111.645 15.8593 112.202C15.0971 112.646 14.4982 112.869 14.0627 112.869C12.7561 112.869 12.1028 110.644 12.1028 106.194C12.1028 104.191 12.5383 102.411 13.4094 100.853C14.3893 99.2955 15.3693 98.2382 16.3492 97.6822L17.6558 96.8481H17.9824C19.1801 96.8481 19.779 99.1287 19.779 103.69C19.779 106.249 19.398 107.528 18.6358 107.528C18.0914 107.528 17.8191 107.25 17.8191 106.694C17.8191 106.472 17.8735 106.027 17.9824 105.359C18.2002 104.58 18.3091 104.024 18.3091 103.69C18.3091 102.467 17.9824 100.853 17.3292 98.8507C14.9338 100.408 13.736 102.8 13.736 106.027C13.736 107.695 14.0083 109.309 14.5527 110.866C14.6615 110.866 14.9338 110.755 15.3693 110.533C15.8048 110.199 16.1314 110.032 16.3492 110.032C16.8936 110.032 17.1659 110.31 17.1659 110.866ZM14.0627 100.353C14.6071 100.353 14.8793 100.631 14.8793 101.187C14.8793 101.743 14.3893 102.189 13.4094 102.522C12.5383 102.856 11.8306 103.023 11.2861 103.023H10.9596C10.0885 103.023 9.65298 101.465 9.65298 98.3503C9.65298 96.0132 10.1974 94.0106 11.2861 92.3416C12.4839 90.5619 13.5728 89.3936 14.5527 88.8374C15.5326 88.1698 16.1858 87.836 16.5125 87.836C17.4924 87.836 17.9824 89.6718 17.9824 93.3433C17.9824 97.4597 17.3836 99.5179 16.1858 99.5179C15.6415 99.5179 15.3693 99.2955 15.3693 98.8507V98.5171C16.0226 96.9593 16.3492 95.2347 16.3492 93.3433C16.3492 92.1192 16.2403 90.9513 16.0226 89.8387C12.865 91.6188 11.2861 94.4554 11.2861 98.3503C11.2861 99.6847 11.3951 100.742 11.6128 101.521C11.8306 101.521 12.2117 101.354 12.7561 101.02C13.4094 100.575 13.8449 100.353 14.0627 100.353ZM9.48964 87.3354C8.94522 87.3354 8.673 87.1129 8.673 86.6678V86.5009C8.89077 84.8321 9.65297 83.3857 10.9596 82.1619C12.2662 80.8268 13.4638 79.9367 14.5527 79.4917C15.6415 79.0466 16.3492 78.8241 16.6758 78.8241C17.1114 78.8241 17.3292 78.991 17.3292 79.3248C17.6558 80.1036 17.8191 80.9937 17.8191 81.995C17.8191 86.8903 15.1515 90.6731 9.81622 93.3433H9.48964C9.05405 93.3433 8.83633 93.1209 8.83633 92.6761C8.83633 92.3416 8.94522 92.0636 9.16297 91.8412C13.8449 89.6162 16.1858 86.3341 16.1858 81.995V80.6599C12.4839 82.1062 10.4696 84.1089 10.1429 86.6678C10.1429 87.1129 9.92514 87.3354 9.48964 87.3354ZM18.4724 70.4798C18.9079 70.4798 19.1257 70.7579 19.1257 71.3142C19.1257 71.7592 19.0169 72.538 18.799 73.6506C18.5813 74.652 18.0369 76.0427 17.1659 77.8228C16.4037 79.4917 15.3693 80.7711 14.0627 81.6612C12.9738 82.3288 11.9395 82.6625 10.9596 82.6625C9.54405 82.6625 8.83633 82.3288 8.83633 81.6612C8.83633 81.1049 9.10855 80.8268 9.65298 80.8268C9.76181 80.8268 9.81622 80.8268 9.81622 80.8268L10.1429 80.9937C10.9051 81.55 11.9939 81.3274 13.4094 80.3261C15.4782 79.3248 16.8936 76.599 17.6558 72.1486C14.2804 72.4824 12.1572 74.0957 11.2861 76.9884C11.0684 77.4334 10.8506 77.6559 10.6329 77.6559C9.97956 77.6559 9.65298 77.3778 9.65298 76.8215V76.6546C10.0885 74.8745 11.0684 73.4837 12.5927 72.4824C14.226 71.4811 15.4782 70.9248 16.3492 70.8135C17.2203 70.591 17.928 70.4798 18.4724 70.4798ZM21.249 61.6349C21.7933 61.6349 22.0656 61.913 22.0656 62.4693C22.0656 62.8031 21.8478 63.6375 21.4122 64.9726C20.9767 66.1964 20.2145 67.6427 19.1257 69.3116C18.0369 70.9804 16.7848 72.093 15.3693 72.6493C14.4982 73.0943 13.2461 73.4281 11.6128 73.6506H11.4495C11.014 73.6506 10.7962 73.4281 10.7962 72.9831C10.7962 72.4268 11.014 72.1486 11.4495 72.1486H11.6128C12.5927 72.0374 13.6816 71.7036 14.8793 71.1473C16.9481 70.4798 18.7446 67.8652 20.269 63.3037C16.8936 63.6375 14.5527 64.6945 13.2461 66.4746C13.0283 66.6971 12.8105 66.8084 12.5927 66.8084C12.0483 66.8084 11.7762 66.5858 11.7762 66.1408V65.9739C11.8851 65.8627 11.9395 65.7514 11.9395 65.6401C13.4638 62.9699 16.567 61.6349 21.249 61.6349ZM12.4294 67.309C11.7762 67.309 11.4495 65.807 11.4495 62.8031C11.4495 59.7991 12.1028 57.0176 13.4094 54.4587C14.716 51.8998 16.5125 50.1753 18.799 49.2852H19.1257C20.3235 49.2852 20.9223 50.9541 20.9223 54.2918C20.9223 56.1832 20.3779 58.0746 19.289 59.966C18.2002 61.7461 17.1114 63.0256 16.0226 63.8044L14.5527 65.1395C13.7905 65.5845 13.3549 66.1408 13.2461 66.8084C13.2461 67.1421 12.9738 67.309 12.4294 67.309ZM18.6358 50.9541C14.8248 52.8455 12.9194 56.7395 12.9194 62.6362V64.305L13.8993 63.4706C14.5527 62.9143 14.9338 62.5805 15.0426 62.4693C15.1515 62.2468 15.4782 61.913 16.0226 61.468C16.567 60.9117 16.8936 60.5223 17.0025 60.2998C17.2203 59.966 17.4924 59.5209 17.8191 58.9647C18.2547 58.4084 18.5269 57.9633 18.6358 57.6296C18.8535 57.1845 19.0169 56.6839 19.1257 56.1276C19.2346 55.46 19.289 54.8481 19.289 54.2918C19.289 53.068 19.0713 51.9554 18.6358 50.9541ZM44.7675 146.079C45.4209 146.079 45.7474 146.358 45.7474 146.914C45.7474 147.47 45.203 147.915 44.1143 148.249C43.0254 148.583 42.1543 148.75 41.5011 148.75H41.1744C39.2145 148.75 36.3836 147.692 32.6816 145.579C32.4638 145.356 32.3549 145.134 32.3549 144.911C32.3549 144.689 32.736 144.188 33.4982 143.409C34.3693 142.742 35.5126 142.074 36.928 141.407C38.4523 140.739 39.8134 140.405 41.0111 140.405H41.3378C44.2775 141.851 45.7474 142.964 45.7474 143.743C45.7474 144.3 45.4209 144.578 44.7675 144.578C44.6586 144.578 44.4409 144.411 44.1143 144.076C43.352 143.52 42.2633 142.853 40.8478 142.074C38.6701 142.408 36.5469 143.354 34.4781 144.911C36.8736 146.358 39.1057 147.081 41.1744 147.081C42.2633 147.081 43.0798 146.914 43.6243 146.58C44.2775 146.247 44.6586 146.079 44.7675 146.079ZM37.5813 142.575C37.5813 143.242 36.2747 143.576 33.6615 143.576C32.0283 143.576 30.1773 143.131 28.1085 142.241C26.1487 141.462 24.6787 140.461 23.6988 139.237C23.5899 139.126 23.5355 138.959 23.5355 138.737C23.5355 138.402 23.7532 138.013 24.1887 137.568C24.7332 137.123 25.5497 136.623 26.6386 136.066C27.8363 135.621 29.1429 135.399 30.5584 135.399C32.736 135.399 33.8249 135.732 33.8249 136.4C33.8249 136.957 33.607 137.235 33.1715 137.235C32.8449 137.235 32.3549 137.179 31.7016 137.068C31.1572 136.957 30.7761 136.901 30.5584 136.901C28.4896 136.901 26.8563 137.513 25.6587 138.737C27.8363 140.962 30.6128 142.074 33.9881 142.074C34.206 142.074 34.6415 142.018 35.2947 141.907C35.9481 141.796 36.4381 141.74 36.7646 141.74C37.3091 141.74 37.5813 142.018 37.5813 142.575ZM29.4151 135.399C29.8506 135.399 30.0684 135.677 30.0684 136.233C30.0684 136.79 29.034 137.068 26.9653 137.068C24.5698 137.068 22.2833 136.455 20.1056 135.232C18.0369 134.008 16.5125 132.45 15.5326 130.559L15.3693 130.392V130.225C15.3693 129.891 15.6415 129.558 16.1858 129.224C16.7303 128.89 17.4924 128.612 18.4724 128.389C19.5613 128.056 20.7045 127.889 21.9022 127.889C24.7332 127.889 26.1487 128.389 26.1487 129.391C26.1487 129.947 25.9308 130.225 25.4953 130.225H25.332L25.1687 130.058C24.5154 129.725 23.4266 129.558 21.9022 129.558C20.1601 129.558 18.6358 129.891 17.3292 130.559C19.5068 133.897 22.8277 135.566 27.2919 135.566C27.5097 135.566 27.8363 135.51 28.2718 135.399C28.8163 135.399 29.1973 135.399 29.4151 135.399ZM21.5755 129.558H21.0856C18.5813 129.558 16.2948 128.89 14.226 127.555C12.1572 126.22 10.6873 124.94 9.81622 123.717C9.05405 122.493 8.673 121.659 8.673 121.213C8.673 120.212 10.4696 119.712 14.0627 119.712C18.0914 119.712 20.1056 120.379 20.1056 121.714C20.1056 122.159 19.8335 122.381 19.289 122.381H18.9624C17.438 121.603 15.8048 121.213 14.0627 121.213C12.5383 121.213 11.3951 121.381 10.6329 121.714C13.2461 125.942 16.7303 128.056 21.0856 128.056H21.5755C22.12 128.056 22.3922 128.278 22.3922 128.723C22.3922 129.28 22.12 129.558 21.5755 129.558ZM14.5527 120.379C14.5527 120.935 14.3349 121.213 13.8993 121.213H13.736C11.6672 120.657 9.7618 119.489 8.0197 117.709C6.27758 115.818 5.18876 113.815 4.75323 111.7V111.534C4.75323 111.089 4.86212 110.866 5.07988 110.866C6.05983 110.421 7.20309 110.199 8.50967 110.199C11.014 110.199 13.5182 111.7 16.0226 114.705C16.1314 114.816 16.1858 114.927 16.1858 115.038C16.1858 115.595 15.9681 115.873 15.5326 115.873C15.3148 115.873 15.0971 115.762 14.8793 115.54C12.9194 112.98 10.7962 111.7 8.50967 111.7C8.07415 111.7 7.36641 111.868 6.38647 112.202C6.822 113.871 7.80194 115.427 9.3263 116.874C10.8506 118.321 12.4294 119.266 14.0627 119.712C14.3893 119.712 14.5527 119.934 14.5527 120.379ZM9.3263 110.866C9.3263 111.311 9.10855 111.534 8.673 111.534H8.50967H8.18303C6.76755 110.755 5.5154 109.531 4.42658 107.862C3.44664 106.083 2.7389 104.58 2.30338 103.356C1.97673 102.133 1.81341 101.354 1.81341 101.02C1.81341 100.464 2.63002 100.185 4.26326 100.185C7.7475 100.185 10.4696 101.576 12.4294 104.358V104.692C12.4294 105.359 12.2117 105.693 11.7762 105.693C11.5584 105.693 11.3407 105.581 11.1228 105.359C9.48964 102.912 7.20309 101.687 4.26326 101.687H3.77329C4.97099 106.027 6.71311 108.864 8.99963 110.199C9.21739 110.421 9.3263 110.644 9.3263 110.866ZM8.673 101.687C8.673 102.133 8.40079 102.355 7.85638 102.355H7.52973C2.63002 99.796 0.18017 95.6239 0.18017 89.8387C0.18017 89.2824 0.397934 89.0042 0.833464 89.0042C1.37788 89.0042 2.08561 89.1155 2.95667 89.338C3.82773 89.4493 5.13432 90.2281 6.87644 91.6744C8.72744 93.0097 10.0885 94.9011 10.9596 97.3485V97.5154C10.9596 98.1826 10.6873 98.5171 10.1429 98.5171C9.70739 98.5171 9.43513 98.3503 9.3263 98.0158C7.91082 94.0106 5.35209 91.6188 1.65008 90.84C2.08561 95.8464 4.26326 99.2399 8.18303 101.02C8.50967 101.354 8.673 101.576 8.673 101.687ZM10.1429 93.8438C10.1429 94.2886 9.92514 94.5119 9.48964 94.5119H9.3263C9.21738 94.3998 9.10855 94.3442 8.99963 94.3442C6.49535 93.2321 4.37214 91.3408 2.63002 88.6705C0.887905 85.889 0.0168457 83.0519 0.0168457 80.1592C0.0168457 78.6016 0.289052 77.8228 0.833464 77.8228H0.996785C3.60997 78.0453 5.62429 79.2135 7.03976 81.3274C8.56412 83.3301 9.48964 85.2215 9.81622 87.0016C10.1429 88.6705 10.3062 90.4506 10.3062 92.3416L10.1429 93.8438ZM1.48675 79.3248V80.3261C1.48675 82.6625 2.14005 84.999 3.44664 87.3354C4.86212 89.6718 6.60424 91.3963 8.673 92.5084C8.673 84.7208 6.27758 80.3261 1.48675 79.3248ZM10.7962 78.4904C10.7962 82.9407 10.1974 85.1658 8.99963 85.1658C8.78188 85.1658 8.61856 85.1102 8.50967 84.999C4.15438 80.9937 1.97673 76.6546 1.97673 71.9818C1.97673 68.5328 2.57559 66.8084 3.77329 66.8084L4.09994 66.9752C8.56412 68.6441 10.7962 72.4824 10.7962 78.4904ZM4.26326 68.6441C3.93661 69.9791 3.77329 71.1473 3.77329 72.1486C3.77329 75.9314 5.40653 79.4917 8.673 82.8294C8.89077 81.4943 8.99963 80.048 8.99963 78.4904C8.99963 73.3725 7.42085 70.0904 4.26326 68.6441ZM12.9194 65.3064C12.9194 66.864 12.7017 68.3659 12.2662 69.8122C11.9395 71.2586 11.5584 72.3712 11.1228 73.15C10.7962 73.9288 10.4696 74.3182 10.1429 74.3182C10.0341 74.3182 9.87073 74.2069 9.65298 73.9844C6.822 71.4255 5.40653 68.1434 5.40653 64.1382C5.40653 62.5805 5.5154 61.1342 5.73317 59.7991C6.05983 58.3527 6.38647 57.2958 6.71311 56.6282C7.14865 55.9607 7.52973 55.6269 7.85638 55.6269C8.07415 55.6269 8.23747 55.6825 8.34636 55.7938C11.3951 57.9077 12.9194 61.0786 12.9194 65.3064ZM9.81622 72.1486C10.9051 69.701 11.4495 67.4202 11.4495 65.3064C11.4495 62.3024 10.3062 59.7435 8.0197 57.6296C7.25752 59.7435 6.87644 61.913 6.87644 64.1382C6.87644 67.2534 7.85638 69.9235 9.81622 72.1486ZM61.7532 127.388C61.2088 128.056 60.5555 128.389 59.7933 128.389C59.0311 128.389 58.3234 128.056 57.6701 127.388C57.0168 126.72 56.6902 125.942 56.6902 125.051C56.6902 124.273 56.9624 123.606 57.5068 123.049C58.16 122.381 58.9223 122.048 59.7933 122.048C60.6644 122.048 61.3721 122.381 61.9166 123.049C62.4609 123.606 62.7331 124.273 62.7331 125.051C62.7331 125.942 62.4065 126.72 61.7532 127.388ZM58.16 125.051C58.16 126.164 58.7044 126.72 59.7933 126.72C60.7732 126.72 61.2632 126.164 61.2632 125.051C61.2632 124.05 60.7732 123.55 59.7933 123.55C58.7044 123.55 58.16 124.05 58.16 125.051ZM81.6787 115.205C83.4208 115.205 84.2919 115.595 84.2919 116.374C84.2919 116.485 84.1829 116.652 83.9652 116.874C82.0053 117.987 79.7188 119.545 77.1057 121.547C71.8793 125.553 67.7962 127.555 64.8563 127.555C63.9853 127.555 63.2231 127.277 62.5698 126.72C61.9166 126.053 61.5899 125.275 61.5899 124.384C61.5899 123.717 61.7532 123.16 62.0798 122.715C62.4065 122.159 62.8965 121.714 63.5497 121.381C64.3119 121.046 64.9108 120.824 65.3463 120.712C65.8907 120.49 66.5985 120.323 67.4695 120.212C68.4494 119.99 69.0483 119.823 69.2661 119.712C74.819 118.376 78.3033 115.706 79.7188 111.7C79.9366 111.478 80.2087 111.367 80.5354 111.367C80.9709 111.367 81.1887 111.534 81.1887 111.868C81.1887 113.091 81.0798 114.26 80.8621 115.372C80.9709 115.372 81.1343 115.372 81.352 115.372C81.5698 115.261 81.6787 115.205 81.6787 115.205ZM79.8821 116.707C79.5555 116.707 79.3922 116.485 79.3922 116.04C79.3922 115.929 79.3922 115.762 79.3922 115.54C79.501 115.205 79.5555 114.983 79.5555 114.871C77.1601 118.098 73.458 120.212 68.4494 121.213C64.7475 122.103 62.8965 123.16 62.8965 124.384C62.8965 125.608 63.5497 126.22 64.8563 126.22C67.6872 126.22 71.5526 124.328 76.4523 120.546C78.0856 119.21 80.0454 117.876 82.3319 116.54H81.6787C81.4609 116.54 81.1343 116.596 80.6988 116.707C80.2632 116.707 79.991 116.707 79.8821 116.707ZM57.6701 124.217C57.6701 125.108 57.3434 125.886 56.6902 126.553C56.0368 127.222 55.2747 127.555 54.4036 127.555C51.6816 127.555 47.544 125.497 41.991 121.381C41.12 120.712 40.0856 119.99 38.8879 119.21C37.6901 118.432 36.7102 117.82 35.9481 117.375C35.2947 116.818 34.9681 116.429 34.9681 116.207C34.9681 115.54 35.8391 115.205 37.5813 115.205H38.5612C38.2346 113.536 38.0712 112.424 38.0712 111.868C38.0712 111.422 38.3435 111.2 38.8879 111.2C38.9967 111.2 39.2145 111.367 39.5412 111.7C41.0655 115.706 44.9309 118.432 51.1371 119.878C55.4924 120.768 57.6701 122.215 57.6701 124.217ZM39.3778 116.707C39.269 116.707 38.9967 116.652 38.5612 116.54C38.1257 116.429 37.7991 116.374 37.5813 116.374L37.418 116.54C37.3091 116.54 37.2002 116.54 37.0913 116.54C39.0512 117.653 40.9567 118.988 42.8077 120.546C47.4896 124.328 51.3549 126.22 54.4036 126.22C55.8191 126.22 56.5269 125.553 56.5269 124.217C56.5269 123.772 56.3635 123.383 56.0368 123.049C55.7102 122.604 55.2203 122.27 54.5669 122.048C54.0225 121.825 53.4782 121.659 52.9338 121.547C52.3893 121.436 51.736 121.325 50.9738 121.213C50.2116 121.102 49.7216 120.99 49.5039 120.879C45.0397 119.656 41.7733 117.653 39.7045 114.871C39.7045 114.983 39.7589 115.205 39.8678 115.54C39.9767 115.762 40.0312 115.929 40.0312 116.04C40.0312 116.485 39.8134 116.707 39.3778 116.707ZM64.3664 158.095C64.3664 158.874 63.9853 159.263 63.2231 159.263C62.8965 159.263 62.6242 159.152 62.4065 158.93C58.4867 155.703 56.5269 152.866 56.5269 150.419C56.5269 149.862 56.0913 149.584 55.2203 149.584H54.2403V156.927C54.2403 157.594 53.8593 157.929 53.097 157.929C52.226 157.929 51.7904 157.594 51.7904 156.927V137.235C51.7904 136.455 52.1716 136.066 52.9338 136.066H53.7503C57.0168 136.066 59.4122 136.79 60.9365 138.235C62.1343 139.46 62.7331 140.906 62.7331 142.575V142.742L62.5698 142.909V143.076C62.5698 144.3 62.1343 145.523 61.2632 146.747C60.501 147.97 59.5755 148.805 58.4867 149.25C58.4867 149.361 58.4867 149.584 58.4867 149.917C58.5956 150.252 58.65 150.419 58.65 150.419C58.65 150.53 58.7044 150.752 58.8134 151.086C58.9223 151.42 58.9767 151.642 58.9767 151.753C59.0855 151.976 59.1945 152.199 59.3034 152.421C59.5211 152.755 59.6845 153.033 59.7933 153.255C60.011 153.478 60.2289 153.756 60.4466 154.09C60.7732 154.424 61.0455 154.702 61.2632 154.924C61.5899 155.258 61.971 155.592 62.4065 155.926C62.842 156.26 63.332 156.649 63.8764 157.094C64.2031 157.427 64.3664 157.762 64.3664 158.095ZM55.2203 147.081C58.5956 147.081 60.2833 145.745 60.2833 143.076V142.909V142.575C60.2833 141.24 59.63 140.182 58.3234 139.404C57.1257 138.737 55.7647 138.402 54.2403 138.402V147.081H55.2203ZM66.3262 151.086C66.3262 150.307 66.7073 149.917 67.4695 149.917C68.2317 149.917 68.6128 150.307 68.6128 151.086C68.6128 152.755 68.0139 154.146 66.8162 155.258C65.6185 156.371 64.3119 156.927 62.8965 156.927H63.0598C60.6644 156.927 58.8678 155.815 57.6701 153.589C56.4723 151.475 55.8735 148.917 55.8735 145.912C55.8735 139.348 58.0512 136.066 62.4065 136.066C64.9108 136.066 66.5985 137.401 67.4695 140.071C67.4695 140.182 67.4695 140.349 67.4695 140.573C67.5784 140.795 67.6328 140.906 67.6328 140.906C67.6328 141.685 67.2517 142.074 66.4896 142.074C65.8362 142.074 65.4007 141.74 65.183 141.073C64.6386 139.293 63.7131 138.402 62.4065 138.402C61.4266 138.402 60.6644 138.681 60.12 139.237C58.8134 140.573 58.16 142.798 58.16 145.912C58.16 148.472 58.5956 150.53 59.4666 152.088C60.3377 153.645 61.481 154.424 62.8965 154.424C64.9652 154.424 66.1085 153.311 66.3262 151.086ZM82.3319 86.8347C82.3319 94.5119 80.1543 101.354 75.7991 107.362C71.4437 113.258 66.0541 116.207 59.63 116.207C55.4924 116.207 51.6272 114.816 48.034 112.035C44.5498 109.253 41.9366 105.971 40.1945 102.189C37.6901 96.8481 36.4925 91.5632 36.6013 86.3341C36.8191 77.6559 39.4867 70.4798 44.6042 64.8057C48.8506 60.0216 53.8593 57.6296 59.63 57.6296C65.0741 57.6296 69.9193 59.966 74.1658 64.6388C79.6099 70.5354 82.3319 77.9341 82.3319 86.8347ZM49.6672 111.534C51.8449 113.759 55.1658 114.871 59.63 114.871C64.2031 114.871 67.4151 113.759 69.2661 111.534C67.4151 110.977 64.2031 110.699 59.63 110.699C54.1858 110.699 50.865 110.977 49.6672 111.534ZM57.6701 104.024C57.6701 103.023 57.1257 102.522 56.0368 102.522C55.6013 102.522 55.438 102.745 55.5469 103.19C55.6558 103.301 55.7102 103.412 55.7102 103.523C55.7102 103.523 55.7102 103.579 55.7102 103.69C55.7102 103.801 55.7102 103.968 55.7102 104.191C55.8191 104.414 55.8735 104.525 55.8735 104.525C55.8735 105.526 55.6558 106.583 55.2203 107.695C55.0025 108.252 54.948 108.53 55.0569 108.53C56.1458 108.864 56.8535 108.808 57.1801 108.363C56.9624 107.806 56.9624 107.028 57.1801 106.027C57.5068 105.025 57.6701 104.358 57.6701 104.024ZM53.9137 108.53C53.9137 108.196 54.077 107.584 54.4036 106.694C54.7303 105.804 54.8936 105.137 54.8936 104.692C54.8936 102.912 54.4036 102.021 53.4237 102.021C52.226 102.021 51.5727 102.3 51.4638 102.856C51.2461 103.634 50.9738 104.08 50.6471 104.191C50.2116 104.525 50.2116 105.526 50.6471 107.195L50.8105 107.528C51.1371 107.417 51.4638 107.417 51.7904 107.528C52.1171 107.64 52.3348 107.806 52.4437 108.03C52.6615 108.141 52.8792 108.308 53.097 108.53C53.4237 108.752 53.6959 108.919 53.9137 109.031V108.53ZM65.5097 108.864C65.4007 108.419 65.5097 107.974 65.8362 107.528C66.1629 107.084 66.3262 106.805 66.3262 106.694C66.544 105.804 66.544 105.248 66.3262 105.025C66.2173 104.803 65.673 104.636 64.693 104.525H62.2431C61.9165 105.526 61.7532 106.194 61.7532 106.527C61.7532 107.528 62.0254 108.363 62.5698 109.031C63.1142 109.698 63.7675 109.698 64.5296 109.031C64.5296 109.031 64.693 109.031 65.0197 109.031C65.2374 108.919 65.4007 108.864 65.5097 108.864ZM67.1428 107.528C66.8162 108.196 67.034 108.641 67.7962 108.864C68.0139 108.864 68.1228 108.808 68.1228 108.697C68.7761 108.586 69.1028 108.141 69.1028 107.362C69.1028 106.583 69.1572 106.138 69.2661 106.027C69.9193 105.359 69.9193 104.858 69.2661 104.525H68.9394C67.8506 104.525 67.3062 104.914 67.3062 105.693V106.027C67.3062 106.805 67.2517 107.306 67.1428 107.528ZM69.4294 109.531C69.6472 109.531 69.9193 109.642 70.246 109.865C70.5727 109.977 70.8449 110.032 71.0626 110.032C71.3893 109.921 71.716 109.698 72.0426 109.364C71.8248 109.475 71.3893 109.475 70.736 109.364C70.0827 109.142 69.6472 109.197 69.4294 109.531ZM70.246 107.695C70.246 107.473 70.1916 107.473 70.0827 107.695C69.9739 107.918 69.9739 108.085 70.0827 108.196L70.246 108.03C70.246 107.918 70.246 107.806 70.246 107.695ZM53.9137 101.187C57.6157 101.187 59.4666 102.911 59.4666 106.361C59.4666 106.472 59.4122 106.694 59.3034 107.028C59.1945 107.362 59.14 107.584 59.14 107.695C59.14 107.806 59.0855 107.918 58.9767 108.03C58.9767 108.474 59.0311 108.752 59.14 108.864C59.2489 108.975 59.5755 109.031 60.12 109.031C60.2289 109.031 60.3921 109.031 60.61 109.031C60.8277 108.919 60.991 108.864 61.0999 108.864C61.4265 108.752 61.481 108.53 61.2632 108.196C61.1543 108.085 61.0999 107.974 61.0999 107.862V104.191C61.0999 103.746 61.3721 103.523 61.9166 103.523C62.5698 103.412 63.3864 103.412 64.3664 103.523C65.3463 103.634 65.8907 103.69 65.9996 103.69H67.9595C68.0683 103.69 68.2862 103.69 68.6128 103.69C69.7016 103.579 70.3004 103.746 70.4094 104.191C70.4094 104.302 70.4094 104.469 70.4094 104.692L70.736 105.859C70.736 105.971 70.7904 106.194 70.8993 106.527C71.0082 106.75 71.0626 106.972 71.0626 107.195C71.1715 107.417 71.2259 107.64 71.2259 107.862C71.2259 108.196 71.3349 108.474 71.5526 108.697C71.7704 108.808 71.9881 108.752 72.2059 108.53C72.8592 108.308 73.1314 107.918 73.0225 107.362C72.6959 104.692 72.5325 102.912 72.5325 102.021C72.5325 101.576 72.5869 100.965 72.6959 100.185C72.8048 99.2955 72.8592 98.5727 72.8592 98.0158C72.8592 97.3485 72.7503 96.7925 72.5325 96.3468C71.7704 94.9011 70.4094 93.7326 68.4494 92.8429C66.5985 91.8412 64.7475 91.3407 62.8965 91.3407C62.6787 91.3407 62.4065 91.3964 62.0798 91.5076C61.7532 91.5076 61.4265 91.5632 61.0999 91.6744C60.7732 91.6744 60.501 91.73 60.2833 91.8412C60.1744 91.9524 60.1744 92.1192 60.2833 92.3416C60.61 93.0097 60.8277 94.1218 60.9365 95.6796C61.0455 97.1261 61.2632 98.1826 61.5899 98.8507C61.8076 99.5179 61.6443 100.074 61.0999 100.52C60.6644 100.965 60.011 101.187 59.14 101.187C57.3979 101.187 56.3091 100.408 55.8735 98.8507C55.6558 98.4059 55.8191 98.1826 56.3635 98.1826C56.4723 98.1826 56.6357 98.2938 56.8535 98.5171C57.0713 98.7395 57.2346 99.0175 57.3434 99.3511C57.5612 99.5735 57.7245 99.7403 57.8334 99.8515C58.16 100.185 58.5956 100.353 59.14 100.353C59.4666 100.353 59.8477 100.242 60.2833 100.018C60.501 99.9072 60.3921 98.3503 59.9566 95.3459C59.7389 94.0106 59.4122 93.2877 58.9767 93.1765C57.9968 92.9541 57.2346 93.677 56.6902 95.3459C56.4723 95.7908 56.2546 95.9576 56.0368 95.8464C55.4924 95.6239 55.5469 95.0679 56.2002 94.1774C56.9624 93.2877 57.6157 92.6761 58.16 92.3416C55.5469 92.5649 53.9681 92.6205 53.4237 92.5084C53.097 92.3972 52.6071 92.3416 51.9537 92.3416C50.7561 92.3416 49.9939 93.1765 49.6672 94.8455C49.1228 98.4059 48.8506 100.686 48.8506 101.687V103.523C48.9595 103.523 49.2317 102.967 49.6672 101.854C49.7761 101.521 49.885 101.409 49.9939 101.521C50.3206 101.854 50.9738 101.91 51.9537 101.687C53.0426 101.354 53.6959 101.187 53.9137 101.187ZM73.6758 106.194C73.7847 106.639 74.0025 106.917 74.3291 107.028C74.7646 106.917 75.0913 106.527 75.3091 105.859C75.5268 105.081 75.5268 104.525 75.3091 104.191L73.8391 102.021V106.027L73.6758 106.194ZM60.9365 81.3274C60.9365 82.1062 60.8277 83.3857 60.61 85.1658C60.501 86.946 60.4466 88.2254 60.4466 89.0042C60.4466 89.7831 60.61 90.2837 60.9365 90.5062C61.3721 90.7287 62.2431 90.84 63.5497 90.84C66.5985 90.9513 68.9394 91.6188 70.5727 92.8429C72.2059 93.955 73.5125 95.902 74.4925 98.6839C74.7102 99.2399 75.0369 100.074 75.4724 101.187C75.9079 102.189 76.2346 102.967 76.4523 103.523C76.6701 103.412 76.9423 103.023 77.2689 102.355C79.7732 97.2373 81.0254 92.1748 81.0254 87.1685C81.0254 78.1566 78.14 70.7023 72.3692 64.8057C68.4494 60.8004 64.2575 58.7978 59.7933 58.7978C53.1515 58.7978 47.7074 61.9686 43.4609 68.3103C41.9366 70.6467 40.63 73.6506 39.5412 77.3221C38.4523 80.9937 37.9079 84.1645 37.9079 86.8347C37.9079 95.624 40.63 102.967 46.0741 108.864C47.054 110.088 48.1973 110.31 49.5039 109.531C48.8506 108.975 48.415 107.64 48.1973 105.526C47.9795 103.634 47.2718 102.522 46.0741 102.189C45.4209 101.854 45.203 101.521 45.4209 101.187C45.4209 101.076 45.693 101.02 46.2375 101.02C47.4351 101.354 48.034 100.853 48.034 99.5179C48.034 94.0662 49.3406 91.3407 51.9537 91.3407C52.2804 91.3407 52.8248 91.3964 53.587 91.5076C54.4581 91.6188 55.1113 91.6744 55.5469 91.6744C57.3979 91.6744 58.3234 91.1739 58.3234 90.1725C58.3234 90.0612 58.2689 89.8387 58.16 89.5049C58.16 89.1711 58.16 88.9486 58.16 88.8374C58.16 88.3923 58.2145 87.6135 58.3234 86.5009C58.4323 85.3884 58.4867 84.5539 58.4867 83.9976C58.4867 83.2188 58.3779 82.4956 58.16 81.8281C57.7245 81.8281 57.6157 82.0506 57.8334 82.4956V83.8307C57.6157 83.7195 57.3979 83.4413 57.1801 82.9963C57.0713 82.44 56.8535 82.1619 56.5269 82.1619C56.5269 82.4956 56.6357 82.9963 56.8535 83.6639C57.0713 84.3314 57.1257 84.8877 57.0168 85.3327C56.0368 84.1089 55.5469 82.7182 55.5469 81.1605C55.5469 81.0493 55.5469 80.8824 55.5469 80.6599C55.6558 80.3261 55.7102 80.1036 55.7102 79.9923C55.8191 79.8811 55.8191 79.7142 55.7102 79.4917C55.6013 79.4917 55.5469 79.3248 55.5469 78.991V78.8241C55.3291 79.0466 55.2203 79.4917 55.2203 80.1592L55.0569 81.1605C54.948 81.3831 54.8392 81.4943 54.7303 81.4943C54.7303 81.4943 54.6758 81.3274 54.5669 80.9937C54.2403 80.9937 54.077 81.3274 54.077 81.995C54.1858 82.6625 54.1314 83.1076 53.9137 83.3301C53.587 83.1076 53.3692 82.7182 53.2603 82.1619C53.2603 81.6056 53.2059 81.2162 53.097 80.9937C52.7704 81.3274 52.6071 81.8837 52.6071 82.6625C52.7159 83.4413 52.6615 83.9976 52.4437 84.3314C51.8993 83.2188 51.6272 82.3288 51.6272 81.6612C51.6272 80.5486 52.226 79.3804 53.4237 78.1566C54.4036 77.1553 54.7847 76.2096 54.5669 75.3195C54.3492 75.4308 54.077 75.8202 53.7503 76.4877C53.5326 77.044 53.2603 77.3778 52.9338 77.489C52.8248 77.2665 52.8792 76.9327 53.097 76.4877C53.3148 75.9314 53.3692 75.542 53.2603 75.3195C52.9337 75.4308 52.5527 75.7645 52.1171 76.3208C51.7904 76.8771 51.5182 77.2109 51.3005 77.3221C51.1916 77.3221 51.0282 77.3221 50.8105 77.3221C50.5927 77.2109 50.4839 77.2109 50.4839 77.3221C50.375 77.4334 50.2116 77.7672 49.9939 78.3235C49.885 78.8798 49.6672 79.2692 49.3406 79.4917C49.1228 79.1579 49.1228 78.7129 49.3406 78.1566C49.5584 77.6003 49.6672 77.2109 49.6672 76.9884C49.2317 77.2109 48.8506 77.7115 48.524 78.4904C48.3062 79.1579 48.034 79.5473 47.7074 79.6586C47.5985 78.2122 48.0885 76.8771 49.1773 75.6533C50.2661 74.4294 51.5726 73.7063 53.097 73.4837C54.4036 73.2612 55.3836 72.7049 56.0368 71.8149C55.7102 71.8149 55.2747 71.7592 54.7303 71.648C54.1858 71.5367 53.6959 71.4811 53.2603 71.4811L53.097 71.3142C53.097 71.2029 53.097 71.1473 53.097 71.1473C53.2059 71.1473 53.2603 71.0917 53.2603 70.9804C53.587 70.6467 53.6414 70.4798 53.4237 70.4798C53.2059 70.3685 52.9882 70.3685 52.7704 70.4798C52.1171 70.8135 51.2461 70.9804 50.1572 70.9804C49.9395 70.7579 49.6672 70.6467 49.3406 70.6467L48.8506 70.8135C48.524 71.0361 48.3062 71.0361 48.1973 70.8135L49.8306 69.4784C49.3951 69.3672 48.8506 69.4784 48.1973 69.8122C47.544 70.0347 47.054 70.146 46.7274 70.146C48.3606 68.6996 49.8306 67.9765 51.1371 67.9765C51.8993 67.9765 52.9337 68.1991 54.2403 68.6441C54.3492 68.6441 54.4036 68.4771 54.4036 68.1434C54.4036 68.0322 54.5125 67.9765 54.7303 67.9765C55.0569 67.8652 55.3291 67.8652 55.5469 67.9765C55.8735 67.9765 56.0913 67.9209 56.2002 67.8097C55.9824 67.5872 55.4924 67.3646 54.7303 67.1421C54.077 66.9196 53.6959 66.5858 53.587 66.1408V65.6401C53.4782 65.5289 53.2059 65.4176 52.7704 65.3064C52.4437 65.1951 52.226 65.0282 52.1171 64.8057C52.3348 64.5832 52.6615 64.5276 53.097 64.6388C53.6414 64.7501 54.0225 64.7501 54.2403 64.6388C54.0225 64.305 53.4782 64.0825 52.6071 63.9713C51.8449 63.7488 51.3549 63.5262 51.1371 63.3037H52.1171C54.6214 63.3037 56.8535 64.8613 58.8134 67.9765C58.9223 67.4202 58.7589 66.864 58.3234 66.3077C57.9968 65.6401 57.8334 65.1395 57.8334 64.8057L58.65 65.4733C58.7589 65.1395 58.5956 64.6945 58.16 64.1382C57.8334 63.4706 57.8334 62.9143 58.16 62.4693C58.2689 62.4693 58.3779 62.6362 58.4867 62.9699C58.7044 63.3037 58.9223 63.415 59.14 63.3037C58.9223 62.8587 59.0311 62.3024 59.4666 61.6349C60.011 60.9673 60.2833 60.5779 60.2833 60.4666C60.501 60.6892 60.501 61.0786 60.2833 61.6349C60.1744 62.0799 60.1744 62.4137 60.2833 62.6362C60.501 62.6362 60.6644 62.4693 60.7732 62.1355C60.8821 61.8017 61.0999 61.6905 61.4265 61.8017C61.4265 62.5805 61.2088 63.3037 60.7732 63.9713C61.3176 63.9713 61.481 64.1938 61.2632 64.6388C61.1543 64.7501 61.0999 64.8613 61.0999 64.9726C61.0999 65.0839 60.9365 65.3064 60.61 65.6401C60.3921 65.9739 60.3377 66.3077 60.4466 66.6414C60.6644 66.6414 60.8821 66.4746 61.0999 66.1408C61.3176 65.6958 61.5899 65.4733 61.9166 65.4733C62.0254 65.807 61.9165 66.2521 61.5899 66.8084C61.2632 67.2534 61.0999 67.6428 61.0999 67.9765C61.5354 67.754 62.0798 67.4202 62.7331 66.9752C63.4953 66.419 64.1486 66.0295 64.693 65.807C65.3463 65.5845 66.1085 65.4733 66.9796 65.4733C67.7418 65.4733 68.5583 65.5845 69.4294 65.807C69.1028 66.0295 68.5583 66.1964 67.7962 66.3077C67.1428 66.419 66.6529 66.5302 66.3262 66.6414L68.6128 67.1421C68.1773 67.3646 67.5784 67.5315 66.8162 67.6428C66.0541 67.6428 65.6185 67.6428 65.5097 67.6428C65.5097 67.8653 65.673 68.0322 65.9996 68.1434C66.3262 68.1434 66.544 68.1991 66.6529 68.3103C66.4352 68.6441 65.9452 68.8665 65.183 68.9778C64.5296 69.0891 64.0397 69.256 63.7131 69.4784C64.1486 69.701 64.5842 69.8122 65.0197 69.8122C65.3463 69.8122 65.8362 69.701 66.4896 69.4784C67.2517 69.256 67.8506 69.1447 68.2862 69.1447C69.2661 69.1447 70.3004 69.5341 71.3893 70.3129C72.4781 70.9804 73.2403 71.7592 73.6758 72.6493C71.7159 71.4255 70.6271 70.8692 70.4094 70.9804C70.4094 71.2029 70.5727 71.4811 70.8993 71.8149C71.3349 72.1486 71.607 72.4824 71.716 72.8162L69.5927 71.8149C69.3749 72.0374 69.3205 72.2599 69.4294 72.4824C69.6472 72.5937 69.7016 72.7049 69.5927 72.8162L67.7962 71.9818C67.5784 71.8705 67.4151 71.9818 67.3062 72.3155C67.3062 72.6493 67.1428 72.7606 66.8162 72.6493L65.3463 72.1486C65.5641 72.7049 65.5641 73.0387 65.3463 73.15C65.2374 73.15 65.0197 73.0387 64.693 72.8162C64.4752 72.5937 64.3119 72.6493 64.2031 72.9831C64.4208 73.4281 64.7475 73.8175 65.183 74.1513C65.7274 74.3738 66.3262 74.5963 66.9796 74.8188C67.7418 75.0414 68.2317 75.2082 68.4494 75.3195C70.0827 76.3208 70.8993 77.8228 70.8993 79.8255C70.8993 80.3817 70.7904 80.8824 70.5727 81.3274C70.3549 80.9937 70.1916 80.493 70.0827 79.8255C69.9739 79.1579 69.756 78.7129 69.4294 78.4904C69.3205 78.7129 69.2661 79.0466 69.2661 79.4917C69.2661 79.9367 69.1572 80.2705 68.9394 80.493C68.7217 80.048 68.5039 79.4917 68.2862 78.8241C68.0683 78.7129 67.905 78.8241 67.7962 79.1579C67.7962 79.4917 67.6872 79.6029 67.4695 79.4917C66.9251 78.1566 66.4352 77.2665 65.9996 76.8215C65.9996 76.9327 65.9996 77.2109 65.9996 77.6559C66.1085 77.9897 66.1085 78.2678 65.9996 78.4904C65.9996 78.7129 65.8907 78.7685 65.673 78.6572C65.4552 78.546 65.4007 78.6016 65.5097 78.8241C66.4896 80.2705 66.9796 81.4943 66.9796 82.4956C66.9796 83.6082 66.544 84.6096 65.673 85.4996C65.5641 85.1658 65.5641 84.6652 65.673 83.9976C65.7818 83.2188 65.7274 82.6625 65.5097 82.3288C65.4007 82.44 65.183 82.8294 64.8563 83.497C64.4208 84.1645 64.2031 84.3314 64.2031 83.9976C64.2031 82.9963 64.0941 82.4956 63.8764 82.4956L63.7131 82.8294C63.4953 82.6069 63.332 81.8837 63.2231 80.6599C63.1142 80.3261 63.0598 80.1592 63.0598 80.1592C62.842 80.6043 62.6242 80.8824 62.4065 80.9937C62.2976 80.7711 62.2431 80.3817 62.2431 79.8255C62.2431 79.1579 62.1343 78.6572 61.9166 78.3235C62.0254 78.6572 61.862 78.9354 61.4265 79.1579C60.991 79.2692 60.7732 79.4917 60.7732 79.8255C60.7732 80.048 60.7732 80.3261 60.7732 80.6599C60.8821 80.9937 60.9365 81.2162 60.9365 81.3274ZM52.9338 95.8464C53.4782 95.8464 53.587 96.0688 53.2603 96.5145C52.8248 97.0705 52.226 97.1261 51.4638 96.6813C51.6816 96.1244 52.1716 95.8464 52.9338 95.8464Z" fill="white"/>
</svg>
